G75*
G70*
%OFA0B0*%
%FSLAX24Y24*%
%IPPOS*%
%LPD*%
%AMOC8*
5,1,8,0,0,1.08239X$1,22.5*
%
%ADD10C,0.0000*%
%ADD11C,0.0060*%
%ADD12C,0.0070*%
%ADD13C,0.0050*%
%ADD14C,0.0020*%
%ADD15C,0.0100*%
%ADD16C,0.0010*%
%ADD17C,0.0040*%
%ADD18C,0.0160*%
%ADD19C,0.0120*%
D10*
X002146Y000347D02*
X002146Y025343D01*
X041016Y025343D01*
X041016Y000347D01*
X002146Y000347D01*
X002996Y001847D02*
X002998Y001897D01*
X003004Y001947D01*
X003014Y001997D01*
X003027Y002045D01*
X003044Y002093D01*
X003065Y002139D01*
X003089Y002183D01*
X003117Y002225D01*
X003148Y002265D01*
X003182Y002302D01*
X003219Y002337D01*
X003258Y002368D01*
X003299Y002397D01*
X003343Y002422D01*
X003389Y002444D01*
X003436Y002462D01*
X003484Y002476D01*
X003533Y002487D01*
X003583Y002494D01*
X003633Y002497D01*
X003684Y002496D01*
X003734Y002491D01*
X003784Y002482D01*
X003832Y002470D01*
X003880Y002453D01*
X003926Y002433D01*
X003971Y002410D01*
X004014Y002383D01*
X004054Y002353D01*
X004092Y002320D01*
X004127Y002284D01*
X004160Y002245D01*
X004189Y002204D01*
X004215Y002161D01*
X004238Y002116D01*
X004257Y002069D01*
X004272Y002021D01*
X004284Y001972D01*
X004292Y001922D01*
X004296Y001872D01*
X004296Y001822D01*
X004292Y001772D01*
X004284Y001722D01*
X004272Y001673D01*
X004257Y001625D01*
X004238Y001578D01*
X004215Y001533D01*
X004189Y001490D01*
X004160Y001449D01*
X004127Y001410D01*
X004092Y001374D01*
X004054Y001341D01*
X004014Y001311D01*
X003971Y001284D01*
X003926Y001261D01*
X003880Y001241D01*
X003832Y001224D01*
X003784Y001212D01*
X003734Y001203D01*
X003684Y001198D01*
X003633Y001197D01*
X003583Y001200D01*
X003533Y001207D01*
X003484Y001218D01*
X003436Y001232D01*
X003389Y001250D01*
X003343Y001272D01*
X003299Y001297D01*
X003258Y001326D01*
X003219Y001357D01*
X003182Y001392D01*
X003148Y001429D01*
X003117Y001469D01*
X003089Y001511D01*
X003065Y001555D01*
X003044Y001601D01*
X003027Y001649D01*
X003014Y001697D01*
X003004Y001747D01*
X002998Y001797D01*
X002996Y001847D01*
X002996Y023847D02*
X002998Y023897D01*
X003004Y023947D01*
X003014Y023997D01*
X003027Y024045D01*
X003044Y024093D01*
X003065Y024139D01*
X003089Y024183D01*
X003117Y024225D01*
X003148Y024265D01*
X003182Y024302D01*
X003219Y024337D01*
X003258Y024368D01*
X003299Y024397D01*
X003343Y024422D01*
X003389Y024444D01*
X003436Y024462D01*
X003484Y024476D01*
X003533Y024487D01*
X003583Y024494D01*
X003633Y024497D01*
X003684Y024496D01*
X003734Y024491D01*
X003784Y024482D01*
X003832Y024470D01*
X003880Y024453D01*
X003926Y024433D01*
X003971Y024410D01*
X004014Y024383D01*
X004054Y024353D01*
X004092Y024320D01*
X004127Y024284D01*
X004160Y024245D01*
X004189Y024204D01*
X004215Y024161D01*
X004238Y024116D01*
X004257Y024069D01*
X004272Y024021D01*
X004284Y023972D01*
X004292Y023922D01*
X004296Y023872D01*
X004296Y023822D01*
X004292Y023772D01*
X004284Y023722D01*
X004272Y023673D01*
X004257Y023625D01*
X004238Y023578D01*
X004215Y023533D01*
X004189Y023490D01*
X004160Y023449D01*
X004127Y023410D01*
X004092Y023374D01*
X004054Y023341D01*
X004014Y023311D01*
X003971Y023284D01*
X003926Y023261D01*
X003880Y023241D01*
X003832Y023224D01*
X003784Y023212D01*
X003734Y023203D01*
X003684Y023198D01*
X003633Y023197D01*
X003583Y023200D01*
X003533Y023207D01*
X003484Y023218D01*
X003436Y023232D01*
X003389Y023250D01*
X003343Y023272D01*
X003299Y023297D01*
X003258Y023326D01*
X003219Y023357D01*
X003182Y023392D01*
X003148Y023429D01*
X003117Y023469D01*
X003089Y023511D01*
X003065Y023555D01*
X003044Y023601D01*
X003027Y023649D01*
X003014Y023697D01*
X003004Y023747D01*
X002998Y023797D01*
X002996Y023847D01*
X038996Y023847D02*
X038998Y023897D01*
X039004Y023947D01*
X039014Y023997D01*
X039027Y024045D01*
X039044Y024093D01*
X039065Y024139D01*
X039089Y024183D01*
X039117Y024225D01*
X039148Y024265D01*
X039182Y024302D01*
X039219Y024337D01*
X039258Y024368D01*
X039299Y024397D01*
X039343Y024422D01*
X039389Y024444D01*
X039436Y024462D01*
X039484Y024476D01*
X039533Y024487D01*
X039583Y024494D01*
X039633Y024497D01*
X039684Y024496D01*
X039734Y024491D01*
X039784Y024482D01*
X039832Y024470D01*
X039880Y024453D01*
X039926Y024433D01*
X039971Y024410D01*
X040014Y024383D01*
X040054Y024353D01*
X040092Y024320D01*
X040127Y024284D01*
X040160Y024245D01*
X040189Y024204D01*
X040215Y024161D01*
X040238Y024116D01*
X040257Y024069D01*
X040272Y024021D01*
X040284Y023972D01*
X040292Y023922D01*
X040296Y023872D01*
X040296Y023822D01*
X040292Y023772D01*
X040284Y023722D01*
X040272Y023673D01*
X040257Y023625D01*
X040238Y023578D01*
X040215Y023533D01*
X040189Y023490D01*
X040160Y023449D01*
X040127Y023410D01*
X040092Y023374D01*
X040054Y023341D01*
X040014Y023311D01*
X039971Y023284D01*
X039926Y023261D01*
X039880Y023241D01*
X039832Y023224D01*
X039784Y023212D01*
X039734Y023203D01*
X039684Y023198D01*
X039633Y023197D01*
X039583Y023200D01*
X039533Y023207D01*
X039484Y023218D01*
X039436Y023232D01*
X039389Y023250D01*
X039343Y023272D01*
X039299Y023297D01*
X039258Y023326D01*
X039219Y023357D01*
X039182Y023392D01*
X039148Y023429D01*
X039117Y023469D01*
X039089Y023511D01*
X039065Y023555D01*
X039044Y023601D01*
X039027Y023649D01*
X039014Y023697D01*
X039004Y023747D01*
X038998Y023797D01*
X038996Y023847D01*
X038996Y001847D02*
X038998Y001897D01*
X039004Y001947D01*
X039014Y001997D01*
X039027Y002045D01*
X039044Y002093D01*
X039065Y002139D01*
X039089Y002183D01*
X039117Y002225D01*
X039148Y002265D01*
X039182Y002302D01*
X039219Y002337D01*
X039258Y002368D01*
X039299Y002397D01*
X039343Y002422D01*
X039389Y002444D01*
X039436Y002462D01*
X039484Y002476D01*
X039533Y002487D01*
X039583Y002494D01*
X039633Y002497D01*
X039684Y002496D01*
X039734Y002491D01*
X039784Y002482D01*
X039832Y002470D01*
X039880Y002453D01*
X039926Y002433D01*
X039971Y002410D01*
X040014Y002383D01*
X040054Y002353D01*
X040092Y002320D01*
X040127Y002284D01*
X040160Y002245D01*
X040189Y002204D01*
X040215Y002161D01*
X040238Y002116D01*
X040257Y002069D01*
X040272Y002021D01*
X040284Y001972D01*
X040292Y001922D01*
X040296Y001872D01*
X040296Y001822D01*
X040292Y001772D01*
X040284Y001722D01*
X040272Y001673D01*
X040257Y001625D01*
X040238Y001578D01*
X040215Y001533D01*
X040189Y001490D01*
X040160Y001449D01*
X040127Y001410D01*
X040092Y001374D01*
X040054Y001341D01*
X040014Y001311D01*
X039971Y001284D01*
X039926Y001261D01*
X039880Y001241D01*
X039832Y001224D01*
X039784Y001212D01*
X039734Y001203D01*
X039684Y001198D01*
X039633Y001197D01*
X039583Y001200D01*
X039533Y001207D01*
X039484Y001218D01*
X039436Y001232D01*
X039389Y001250D01*
X039343Y001272D01*
X039299Y001297D01*
X039258Y001326D01*
X039219Y001357D01*
X039182Y001392D01*
X039148Y001429D01*
X039117Y001469D01*
X039089Y001511D01*
X039065Y001555D01*
X039044Y001601D01*
X039027Y001649D01*
X039014Y001697D01*
X039004Y001747D01*
X038998Y001797D01*
X038996Y001847D01*
D11*
X037896Y002847D02*
X038146Y003097D01*
X038146Y003597D01*
X037896Y003847D01*
X038146Y004097D01*
X038146Y004597D01*
X037896Y004847D01*
X038146Y005097D01*
X038146Y005597D01*
X037896Y005847D01*
X038146Y006097D01*
X038146Y006597D01*
X037896Y006847D01*
X038146Y007097D01*
X038146Y007597D01*
X037896Y007847D01*
X038146Y008097D01*
X038146Y008597D01*
X037896Y008847D01*
X038146Y009097D01*
X038146Y009597D01*
X037896Y009847D01*
X038146Y010097D01*
X038146Y010597D01*
X037896Y010847D01*
X038146Y011097D01*
X038146Y011597D01*
X037896Y011847D01*
X038146Y012097D01*
X038146Y012597D01*
X037896Y012847D01*
X038146Y013097D01*
X038146Y013597D01*
X037896Y013847D01*
X038146Y014097D01*
X038146Y014597D01*
X037896Y014847D01*
X038146Y015097D01*
X038146Y015597D01*
X037896Y015847D01*
X038146Y016097D01*
X038146Y016597D01*
X037896Y016847D01*
X038146Y017097D01*
X038146Y017597D01*
X037896Y017847D01*
X038146Y018097D01*
X038146Y018597D01*
X037896Y018847D01*
X038146Y019097D01*
X038146Y019597D01*
X037896Y019847D01*
X038146Y020097D01*
X038146Y020597D01*
X037896Y020847D01*
X038146Y021097D01*
X038146Y021597D01*
X037896Y021847D01*
X038146Y022097D01*
X038146Y022597D01*
X037896Y022847D01*
X036396Y022847D01*
X036146Y022597D01*
X036146Y022097D01*
X036396Y021847D01*
X036146Y021597D01*
X036146Y021097D01*
X036396Y020847D01*
X036146Y020597D01*
X036146Y020097D01*
X036396Y019847D01*
X036146Y019597D01*
X036146Y019097D01*
X036396Y018847D01*
X036146Y018597D01*
X036146Y018097D01*
X036396Y017847D01*
X036146Y017597D01*
X036146Y017097D01*
X036396Y016847D01*
X036146Y016597D01*
X036146Y016097D01*
X036396Y015847D01*
X036146Y015597D01*
X036146Y015097D01*
X036396Y014847D01*
X036146Y014597D01*
X036146Y014097D01*
X036396Y013847D01*
X036146Y013597D01*
X036146Y013097D01*
X036396Y012847D01*
X036146Y012597D01*
X036146Y012097D01*
X036396Y011847D01*
X036146Y011597D01*
X036146Y011097D01*
X036396Y010847D01*
X036146Y010597D01*
X036146Y010097D01*
X036396Y009847D01*
X036146Y009597D01*
X036146Y009097D01*
X036396Y008847D01*
X036146Y008597D01*
X036146Y008097D01*
X036396Y007847D01*
X036146Y007597D01*
X036146Y007097D01*
X036396Y006847D01*
X036146Y006597D01*
X036146Y006097D01*
X036396Y005847D01*
X036146Y005597D01*
X036146Y005097D01*
X036396Y004847D01*
X036146Y004597D01*
X036146Y004097D01*
X036396Y003847D01*
X036146Y003597D01*
X036146Y003097D01*
X036396Y002847D01*
X037896Y002847D01*
X035096Y007697D02*
X035096Y007847D01*
X035046Y007897D01*
X035046Y009797D01*
X035096Y009847D01*
X035096Y009997D01*
X035094Y010014D01*
X035090Y010031D01*
X035083Y010047D01*
X035073Y010061D01*
X035060Y010074D01*
X035046Y010084D01*
X035030Y010091D01*
X035013Y010095D01*
X034996Y010097D01*
X034296Y010097D02*
X034279Y010095D01*
X034262Y010091D01*
X034246Y010084D01*
X034232Y010074D01*
X034219Y010061D01*
X034209Y010047D01*
X034202Y010031D01*
X034198Y010014D01*
X034196Y009997D01*
X034196Y009847D01*
X034246Y009797D01*
X034246Y007897D01*
X034196Y007847D01*
X034196Y007697D01*
X034198Y007680D01*
X034202Y007663D01*
X034209Y007647D01*
X034219Y007633D01*
X034232Y007620D01*
X034246Y007610D01*
X034262Y007603D01*
X034279Y007599D01*
X034296Y007597D01*
X034996Y007597D02*
X035013Y007599D01*
X035030Y007603D01*
X035046Y007610D01*
X035060Y007620D01*
X035073Y007633D01*
X035083Y007647D01*
X035090Y007663D01*
X035094Y007680D01*
X035096Y007697D01*
X034896Y011847D02*
X034396Y011847D01*
X034146Y012097D01*
X034146Y012597D01*
X034396Y012847D01*
X034146Y013097D01*
X034146Y013597D01*
X034396Y013847D01*
X034146Y014097D01*
X034146Y014597D01*
X034396Y014847D01*
X034146Y015097D01*
X034146Y015597D01*
X034396Y015847D01*
X034146Y016097D01*
X034146Y016597D01*
X034396Y016847D01*
X034146Y017097D01*
X034146Y017597D01*
X034396Y017847D01*
X034146Y018097D01*
X034146Y018597D01*
X034396Y018847D01*
X034146Y019097D01*
X034146Y019597D01*
X034396Y019847D01*
X034896Y019847D01*
X035146Y019597D01*
X035146Y019097D01*
X034896Y018847D01*
X035146Y018597D01*
X035146Y018097D01*
X034896Y017847D01*
X035146Y017597D01*
X035146Y017097D01*
X034896Y016847D01*
X035146Y016597D01*
X035146Y016097D01*
X034896Y015847D01*
X035146Y015597D01*
X035146Y015097D01*
X034896Y014847D01*
X035146Y014597D01*
X035146Y014097D01*
X034896Y013847D01*
X035146Y013597D01*
X035146Y013097D01*
X034896Y012847D01*
X035146Y012597D01*
X035146Y012097D01*
X034896Y011847D01*
X021146Y010497D02*
X021146Y013197D01*
X021144Y013214D01*
X021140Y013231D01*
X021133Y013247D01*
X021123Y013261D01*
X021110Y013274D01*
X021096Y013284D01*
X021080Y013291D01*
X021063Y013295D01*
X021046Y013297D01*
X020246Y013297D01*
X020229Y013295D01*
X020212Y013291D01*
X020196Y013284D01*
X020182Y013274D01*
X020169Y013261D01*
X020159Y013247D01*
X020152Y013231D01*
X020148Y013214D01*
X020146Y013197D01*
X020146Y010497D01*
X020148Y010480D01*
X020152Y010463D01*
X020159Y010447D01*
X020169Y010433D01*
X020182Y010420D01*
X020196Y010410D01*
X020212Y010403D01*
X020229Y010399D01*
X020246Y010397D01*
X021046Y010397D01*
X021063Y010399D01*
X021080Y010403D01*
X021096Y010410D01*
X021110Y010420D01*
X021123Y010433D01*
X021133Y010447D01*
X021140Y010463D01*
X021144Y010480D01*
X021146Y010497D01*
X020646Y011247D02*
X020646Y011717D01*
X020646Y011967D02*
X020646Y012447D01*
X020246Y014397D02*
X021046Y014397D01*
X021063Y014399D01*
X021080Y014403D01*
X021096Y014410D01*
X021110Y014420D01*
X021123Y014433D01*
X021133Y014447D01*
X021140Y014463D01*
X021144Y014480D01*
X021146Y014497D01*
X021146Y017197D01*
X021144Y017214D01*
X021140Y017231D01*
X021133Y017247D01*
X021123Y017261D01*
X021110Y017274D01*
X021096Y017284D01*
X021080Y017291D01*
X021063Y017295D01*
X021046Y017297D01*
X020246Y017297D01*
X020229Y017295D01*
X020212Y017291D01*
X020196Y017284D01*
X020182Y017274D01*
X020169Y017261D01*
X020159Y017247D01*
X020152Y017231D01*
X020148Y017214D01*
X020146Y017197D01*
X020146Y014497D01*
X020148Y014480D01*
X020152Y014463D01*
X020159Y014447D01*
X020169Y014433D01*
X020182Y014420D01*
X020196Y014410D01*
X020212Y014403D01*
X020229Y014399D01*
X020246Y014397D01*
X020646Y015247D02*
X020646Y015727D01*
X020646Y015977D02*
X020646Y016447D01*
X012596Y014247D02*
X012596Y013447D01*
X012594Y013430D01*
X012590Y013413D01*
X012583Y013397D01*
X012573Y013383D01*
X012560Y013370D01*
X012546Y013360D01*
X012530Y013353D01*
X012513Y013349D01*
X012496Y013347D01*
X009796Y013347D01*
X009779Y013349D01*
X009762Y013353D01*
X009746Y013360D01*
X009732Y013370D01*
X009719Y013383D01*
X009709Y013397D01*
X009702Y013413D01*
X009698Y013430D01*
X009696Y013447D01*
X009696Y014247D01*
X009698Y014264D01*
X009702Y014281D01*
X009709Y014297D01*
X009719Y014311D01*
X009732Y014324D01*
X009746Y014334D01*
X009762Y014341D01*
X009779Y014345D01*
X009796Y014347D01*
X012496Y014347D01*
X012513Y014345D01*
X012530Y014341D01*
X012546Y014334D01*
X012560Y014324D01*
X012573Y014311D01*
X012583Y014297D01*
X012590Y014281D01*
X012594Y014264D01*
X012596Y014247D01*
X011746Y013847D02*
X011276Y013847D01*
X011026Y013847D02*
X010546Y013847D01*
X011146Y014397D02*
X011296Y014397D01*
X011313Y014399D01*
X011330Y014403D01*
X011346Y014410D01*
X011360Y014420D01*
X011373Y014433D01*
X011383Y014447D01*
X011390Y014463D01*
X011394Y014480D01*
X011396Y014497D01*
X011146Y014397D02*
X011096Y014447D01*
X009196Y014447D01*
X009146Y014397D01*
X008996Y014397D01*
X008979Y014399D01*
X008962Y014403D01*
X008946Y014410D01*
X008932Y014420D01*
X008919Y014433D01*
X008909Y014447D01*
X008902Y014463D01*
X008898Y014480D01*
X008896Y014497D01*
X008896Y015197D02*
X008898Y015214D01*
X008902Y015231D01*
X008909Y015247D01*
X008919Y015261D01*
X008932Y015274D01*
X008946Y015284D01*
X008962Y015291D01*
X008979Y015295D01*
X008996Y015297D01*
X009146Y015297D01*
X009196Y015247D01*
X011096Y015247D01*
X011146Y015297D01*
X011296Y015297D01*
X011313Y015295D01*
X011330Y015291D01*
X011346Y015284D01*
X011360Y015274D01*
X011373Y015261D01*
X011383Y015247D01*
X011390Y015231D01*
X011394Y015214D01*
X011396Y015197D01*
X011296Y015397D02*
X011146Y015397D01*
X011096Y015447D01*
X009196Y015447D01*
X009146Y015397D01*
X008996Y015397D01*
X008979Y015399D01*
X008962Y015403D01*
X008946Y015410D01*
X008932Y015420D01*
X008919Y015433D01*
X008909Y015447D01*
X008902Y015463D01*
X008898Y015480D01*
X008896Y015497D01*
X008896Y016197D02*
X008898Y016214D01*
X008902Y016231D01*
X008909Y016247D01*
X008919Y016261D01*
X008932Y016274D01*
X008946Y016284D01*
X008962Y016291D01*
X008979Y016295D01*
X008996Y016297D01*
X009146Y016297D01*
X009196Y016247D01*
X011096Y016247D01*
X011146Y016297D01*
X011296Y016297D01*
X011313Y016295D01*
X011330Y016291D01*
X011346Y016284D01*
X011360Y016274D01*
X011373Y016261D01*
X011383Y016247D01*
X011390Y016231D01*
X011394Y016214D01*
X011396Y016197D01*
X011296Y016397D02*
X011146Y016397D01*
X011096Y016447D01*
X009196Y016447D01*
X009146Y016397D01*
X008996Y016397D01*
X008979Y016399D01*
X008962Y016403D01*
X008946Y016410D01*
X008932Y016420D01*
X008919Y016433D01*
X008909Y016447D01*
X008902Y016463D01*
X008898Y016480D01*
X008896Y016497D01*
X008896Y017197D02*
X008898Y017214D01*
X008902Y017231D01*
X008909Y017247D01*
X008919Y017261D01*
X008932Y017274D01*
X008946Y017284D01*
X008962Y017291D01*
X008979Y017295D01*
X008996Y017297D01*
X009146Y017297D01*
X009196Y017247D01*
X011096Y017247D01*
X011146Y017297D01*
X011296Y017297D01*
X011313Y017295D01*
X011330Y017291D01*
X011346Y017284D01*
X011360Y017274D01*
X011373Y017261D01*
X011383Y017247D01*
X011390Y017231D01*
X011394Y017214D01*
X011396Y017197D01*
X011296Y017397D02*
X011146Y017397D01*
X011096Y017447D01*
X009196Y017447D01*
X009146Y017397D01*
X008996Y017397D01*
X008979Y017399D01*
X008962Y017403D01*
X008946Y017410D01*
X008932Y017420D01*
X008919Y017433D01*
X008909Y017447D01*
X008902Y017463D01*
X008898Y017480D01*
X008896Y017497D01*
X008896Y018197D02*
X008898Y018214D01*
X008902Y018231D01*
X008909Y018247D01*
X008919Y018261D01*
X008932Y018274D01*
X008946Y018284D01*
X008962Y018291D01*
X008979Y018295D01*
X008996Y018297D01*
X009146Y018297D01*
X009196Y018247D01*
X011096Y018247D01*
X011146Y018297D01*
X011296Y018297D01*
X011313Y018295D01*
X011330Y018291D01*
X011346Y018284D01*
X011360Y018274D01*
X011373Y018261D01*
X011383Y018247D01*
X011390Y018231D01*
X011394Y018214D01*
X011396Y018197D01*
X011396Y017497D02*
X011394Y017480D01*
X011390Y017463D01*
X011383Y017447D01*
X011373Y017433D01*
X011360Y017420D01*
X011346Y017410D01*
X011330Y017403D01*
X011313Y017399D01*
X011296Y017397D01*
X011396Y016497D02*
X011394Y016480D01*
X011390Y016463D01*
X011383Y016447D01*
X011373Y016433D01*
X011360Y016420D01*
X011346Y016410D01*
X011330Y016403D01*
X011313Y016399D01*
X011296Y016397D01*
X011396Y015497D02*
X011394Y015480D01*
X011390Y015463D01*
X011383Y015447D01*
X011373Y015433D01*
X011360Y015420D01*
X011346Y015410D01*
X011330Y015403D01*
X011313Y015399D01*
X011296Y015397D01*
X005096Y013497D02*
X005096Y013347D01*
X005046Y013297D01*
X005046Y011397D01*
X005096Y011347D01*
X005096Y011197D01*
X005094Y011180D01*
X005090Y011163D01*
X005083Y011147D01*
X005073Y011133D01*
X005060Y011120D01*
X005046Y011110D01*
X005030Y011103D01*
X005013Y011099D01*
X004996Y011097D01*
X004296Y011097D02*
X004279Y011099D01*
X004262Y011103D01*
X004246Y011110D01*
X004232Y011120D01*
X004219Y011133D01*
X004209Y011147D01*
X004202Y011163D01*
X004198Y011180D01*
X004196Y011197D01*
X004196Y011347D01*
X004246Y011397D01*
X004246Y013297D01*
X004196Y013347D01*
X004196Y013497D01*
X004198Y013514D01*
X004202Y013531D01*
X004209Y013547D01*
X004219Y013561D01*
X004232Y013574D01*
X004246Y013584D01*
X004262Y013591D01*
X004279Y013595D01*
X004296Y013597D01*
X004996Y013597D02*
X005013Y013595D01*
X005030Y013591D01*
X005046Y013584D01*
X005060Y013574D01*
X005073Y013561D01*
X005083Y013547D01*
X005090Y013531D01*
X005094Y013514D01*
X005096Y013497D01*
X008696Y010497D02*
X008696Y009197D01*
X008698Y009171D01*
X008703Y009145D01*
X008711Y009120D01*
X008723Y009097D01*
X008737Y009075D01*
X008755Y009056D01*
X008774Y009038D01*
X008796Y009024D01*
X008819Y009012D01*
X008844Y009004D01*
X008870Y008999D01*
X008896Y008997D01*
X009396Y008997D01*
X009422Y008999D01*
X009448Y009004D01*
X009473Y009012D01*
X009496Y009024D01*
X009518Y009038D01*
X009537Y009056D01*
X009555Y009075D01*
X009569Y009097D01*
X009581Y009120D01*
X009589Y009145D01*
X009594Y009171D01*
X009596Y009197D01*
X009596Y010497D01*
X009594Y010523D01*
X009589Y010549D01*
X009581Y010574D01*
X009569Y010597D01*
X009555Y010619D01*
X009537Y010638D01*
X009518Y010656D01*
X009496Y010670D01*
X009473Y010682D01*
X009448Y010690D01*
X009422Y010695D01*
X009396Y010697D01*
X008896Y010697D01*
X008870Y010695D01*
X008844Y010690D01*
X008819Y010682D01*
X008796Y010670D01*
X008774Y010656D01*
X008755Y010638D01*
X008737Y010619D01*
X008723Y010597D01*
X008711Y010574D01*
X008703Y010549D01*
X008698Y010523D01*
X008696Y010497D01*
X007296Y010297D02*
X007146Y010297D01*
X007096Y010247D01*
X005196Y010247D01*
X005146Y010297D01*
X004996Y010297D01*
X004979Y010295D01*
X004962Y010291D01*
X004946Y010284D01*
X004932Y010274D01*
X004919Y010261D01*
X004909Y010247D01*
X004902Y010231D01*
X004898Y010214D01*
X004896Y010197D01*
X004896Y009497D02*
X004898Y009480D01*
X004902Y009463D01*
X004909Y009447D01*
X004919Y009433D01*
X004932Y009420D01*
X004946Y009410D01*
X004962Y009403D01*
X004979Y009399D01*
X004996Y009397D01*
X005146Y009397D01*
X005196Y009447D01*
X007096Y009447D01*
X007146Y009397D01*
X007296Y009397D01*
X007313Y009399D01*
X007330Y009403D01*
X007346Y009410D01*
X007360Y009420D01*
X007373Y009433D01*
X007383Y009447D01*
X007390Y009463D01*
X007394Y009480D01*
X007396Y009497D01*
X007396Y010197D02*
X007394Y010214D01*
X007390Y010231D01*
X007383Y010247D01*
X007373Y010261D01*
X007360Y010274D01*
X007346Y010284D01*
X007330Y010291D01*
X007313Y010295D01*
X007296Y010297D01*
X008996Y008547D02*
X011296Y008547D01*
X011396Y008997D02*
X010896Y008997D01*
X010870Y008999D01*
X010844Y009004D01*
X010819Y009012D01*
X010796Y009024D01*
X010774Y009038D01*
X010755Y009056D01*
X010737Y009075D01*
X010723Y009097D01*
X010711Y009120D01*
X010703Y009145D01*
X010698Y009171D01*
X010696Y009197D01*
X010696Y010497D01*
X010698Y010523D01*
X010703Y010549D01*
X010711Y010574D01*
X010723Y010597D01*
X010737Y010619D01*
X010755Y010638D01*
X010774Y010656D01*
X010796Y010670D01*
X010819Y010682D01*
X010844Y010690D01*
X010870Y010695D01*
X010896Y010697D01*
X011396Y010697D01*
X011422Y010695D01*
X011448Y010690D01*
X011473Y010682D01*
X011496Y010670D01*
X011518Y010656D01*
X011537Y010638D01*
X011555Y010619D01*
X011569Y010597D01*
X011581Y010574D01*
X011589Y010549D01*
X011594Y010523D01*
X011596Y010497D01*
X011596Y009197D01*
X011594Y009171D01*
X011589Y009145D01*
X011581Y009120D01*
X011569Y009097D01*
X011555Y009075D01*
X011537Y009056D01*
X011518Y009038D01*
X011496Y009024D01*
X011473Y009012D01*
X011448Y009004D01*
X011422Y008999D01*
X011396Y008997D01*
X010396Y008197D02*
X010396Y007847D01*
X010646Y007847D01*
X010396Y007847D02*
X010396Y007497D01*
X010246Y007497D02*
X010046Y007497D01*
X010046Y008197D01*
X010246Y008197D01*
X010246Y007497D01*
X009896Y007497D02*
X009896Y007847D01*
X009646Y007847D01*
X009896Y007847D02*
X009896Y008197D01*
X008996Y008547D02*
X008945Y008545D01*
X008894Y008540D01*
X008844Y008530D01*
X008794Y008517D01*
X008746Y008501D01*
X008699Y008481D01*
X008653Y008457D01*
X008610Y008431D01*
X008568Y008401D01*
X008529Y008368D01*
X008492Y008333D01*
X008458Y008295D01*
X008427Y008254D01*
X008398Y008212D01*
X008373Y008167D01*
X008352Y008121D01*
X008333Y008073D01*
X008319Y008024D01*
X008308Y007974D01*
X008300Y007924D01*
X008296Y007873D01*
X008296Y007821D01*
X008300Y007770D01*
X008308Y007720D01*
X008319Y007670D01*
X008333Y007621D01*
X008352Y007573D01*
X008373Y007527D01*
X008398Y007482D01*
X008427Y007440D01*
X008458Y007399D01*
X008492Y007361D01*
X008529Y007326D01*
X008568Y007293D01*
X008610Y007263D01*
X008653Y007237D01*
X008699Y007213D01*
X008746Y007193D01*
X008794Y007177D01*
X008844Y007164D01*
X008894Y007154D01*
X008945Y007149D01*
X008996Y007147D01*
X011296Y007147D01*
X010296Y006797D02*
X010146Y006797D01*
X010096Y006747D01*
X008196Y006747D01*
X008146Y006797D01*
X007996Y006797D01*
X007979Y006795D01*
X007962Y006791D01*
X007946Y006784D01*
X007932Y006774D01*
X007919Y006761D01*
X007909Y006747D01*
X007902Y006731D01*
X007898Y006714D01*
X007896Y006697D01*
X007896Y005997D02*
X007898Y005980D01*
X007902Y005963D01*
X007909Y005947D01*
X007919Y005933D01*
X007932Y005920D01*
X007946Y005910D01*
X007962Y005903D01*
X007979Y005899D01*
X007996Y005897D01*
X008146Y005897D01*
X008196Y005947D01*
X010096Y005947D01*
X010146Y005897D01*
X010296Y005897D01*
X010296Y005797D02*
X010146Y005797D01*
X010096Y005747D01*
X008196Y005747D01*
X008146Y005797D01*
X007996Y005797D01*
X007979Y005795D01*
X007962Y005791D01*
X007946Y005784D01*
X007932Y005774D01*
X007919Y005761D01*
X007909Y005747D01*
X007902Y005731D01*
X007898Y005714D01*
X007896Y005697D01*
X007896Y004997D02*
X007898Y004980D01*
X007902Y004963D01*
X007909Y004947D01*
X007919Y004933D01*
X007932Y004920D01*
X007946Y004910D01*
X007962Y004903D01*
X007979Y004899D01*
X007996Y004897D01*
X008146Y004897D01*
X008196Y004947D01*
X010096Y004947D01*
X010146Y004897D01*
X010296Y004897D01*
X010313Y004899D01*
X010330Y004903D01*
X010346Y004910D01*
X010360Y004920D01*
X010373Y004933D01*
X010383Y004947D01*
X010390Y004963D01*
X010394Y004980D01*
X010396Y004997D01*
X010396Y005697D02*
X010394Y005714D01*
X010390Y005731D01*
X010383Y005747D01*
X010373Y005761D01*
X010360Y005774D01*
X010346Y005784D01*
X010330Y005791D01*
X010313Y005795D01*
X010296Y005797D01*
X010296Y005897D02*
X010313Y005899D01*
X010330Y005903D01*
X010346Y005910D01*
X010360Y005920D01*
X010373Y005933D01*
X010383Y005947D01*
X010390Y005963D01*
X010394Y005980D01*
X010396Y005997D01*
X010396Y006697D02*
X010394Y006714D01*
X010390Y006731D01*
X010383Y006747D01*
X010373Y006761D01*
X010360Y006774D01*
X010346Y006784D01*
X010330Y006791D01*
X010313Y006795D01*
X010296Y006797D01*
X011296Y007147D02*
X011347Y007149D01*
X011398Y007154D01*
X011448Y007164D01*
X011498Y007177D01*
X011546Y007193D01*
X011593Y007213D01*
X011639Y007237D01*
X011682Y007263D01*
X011724Y007293D01*
X011763Y007326D01*
X011800Y007361D01*
X011834Y007399D01*
X011865Y007440D01*
X011894Y007482D01*
X011919Y007527D01*
X011940Y007573D01*
X011959Y007621D01*
X011973Y007670D01*
X011984Y007720D01*
X011992Y007770D01*
X011996Y007821D01*
X011996Y007873D01*
X011992Y007924D01*
X011984Y007974D01*
X011973Y008024D01*
X011959Y008073D01*
X011940Y008121D01*
X011919Y008167D01*
X011894Y008212D01*
X011865Y008254D01*
X011834Y008295D01*
X011800Y008333D01*
X011763Y008368D01*
X011724Y008401D01*
X011682Y008431D01*
X011639Y008457D01*
X011593Y008481D01*
X011546Y008501D01*
X011498Y008517D01*
X011448Y008530D01*
X011398Y008540D01*
X011347Y008545D01*
X011296Y008547D01*
X010146Y003497D02*
X010146Y003397D01*
X010246Y003397D01*
X010146Y003397D02*
X010146Y003297D01*
X010146Y003397D02*
X010046Y003397D01*
X008646Y002847D02*
X008648Y002910D01*
X008654Y002972D01*
X008664Y003034D01*
X008677Y003096D01*
X008695Y003156D01*
X008716Y003215D01*
X008741Y003273D01*
X008770Y003329D01*
X008802Y003383D01*
X008837Y003435D01*
X008875Y003484D01*
X008917Y003532D01*
X008961Y003576D01*
X009009Y003618D01*
X009058Y003656D01*
X009110Y003691D01*
X009164Y003723D01*
X009220Y003752D01*
X009278Y003777D01*
X009337Y003798D01*
X009397Y003816D01*
X009459Y003829D01*
X009521Y003839D01*
X009583Y003845D01*
X009646Y003847D01*
X009709Y003845D01*
X009771Y003839D01*
X009833Y003829D01*
X009895Y003816D01*
X009955Y003798D01*
X010014Y003777D01*
X010072Y003752D01*
X010128Y003723D01*
X010182Y003691D01*
X010234Y003656D01*
X010283Y003618D01*
X010331Y003576D01*
X010375Y003532D01*
X010417Y003484D01*
X010455Y003435D01*
X010490Y003383D01*
X010522Y003329D01*
X010551Y003273D01*
X010576Y003215D01*
X010597Y003156D01*
X010615Y003096D01*
X010628Y003034D01*
X010638Y002972D01*
X010644Y002910D01*
X010646Y002847D01*
X010644Y002784D01*
X010638Y002722D01*
X010628Y002660D01*
X010615Y002598D01*
X010597Y002538D01*
X010576Y002479D01*
X010551Y002421D01*
X010522Y002365D01*
X010490Y002311D01*
X010455Y002259D01*
X010417Y002210D01*
X010375Y002162D01*
X010331Y002118D01*
X010283Y002076D01*
X010234Y002038D01*
X010182Y002003D01*
X010128Y001971D01*
X010072Y001942D01*
X010014Y001917D01*
X009955Y001896D01*
X009895Y001878D01*
X009833Y001865D01*
X009771Y001855D01*
X009709Y001849D01*
X009646Y001847D01*
X009583Y001849D01*
X009521Y001855D01*
X009459Y001865D01*
X009397Y001878D01*
X009337Y001896D01*
X009278Y001917D01*
X009220Y001942D01*
X009164Y001971D01*
X009110Y002003D01*
X009058Y002038D01*
X009009Y002076D01*
X008961Y002118D01*
X008917Y002162D01*
X008875Y002210D01*
X008837Y002259D01*
X008802Y002311D01*
X008770Y002365D01*
X008741Y002421D01*
X008716Y002479D01*
X008695Y002538D01*
X008677Y002598D01*
X008664Y002660D01*
X008654Y002722D01*
X008648Y002784D01*
X008646Y002847D01*
X013546Y002947D02*
X013546Y023747D01*
X015646Y023747D01*
X015648Y023703D01*
X015654Y023660D01*
X015663Y023618D01*
X015676Y023576D01*
X015693Y023536D01*
X015713Y023497D01*
X015736Y023460D01*
X015763Y023426D01*
X015792Y023393D01*
X015825Y023364D01*
X015859Y023337D01*
X015896Y023314D01*
X015935Y023294D01*
X015975Y023277D01*
X016017Y023264D01*
X016059Y023255D01*
X016102Y023249D01*
X016146Y023247D01*
X016190Y023249D01*
X016233Y023255D01*
X016275Y023264D01*
X016317Y023277D01*
X016357Y023294D01*
X016396Y023314D01*
X016433Y023337D01*
X016467Y023364D01*
X016500Y023393D01*
X016529Y023426D01*
X016556Y023460D01*
X016579Y023497D01*
X016599Y023536D01*
X016616Y023576D01*
X016629Y023618D01*
X016638Y023660D01*
X016644Y023703D01*
X016646Y023747D01*
X018746Y023747D01*
X018746Y002947D01*
X013546Y002947D01*
D12*
X022951Y010637D02*
X023166Y010422D01*
X023166Y010709D01*
X022951Y010637D02*
X023382Y010637D01*
X025951Y010637D02*
X026166Y010422D01*
X026166Y010709D01*
X025951Y010637D02*
X026382Y010637D01*
X028951Y010637D02*
X029166Y010422D01*
X029166Y010709D01*
X028951Y010637D02*
X029382Y010637D01*
X031951Y010637D02*
X032166Y010422D01*
X032166Y010709D01*
X031951Y010637D02*
X032382Y010637D01*
X032402Y015122D02*
X032402Y015409D01*
X032402Y015265D02*
X031971Y015265D01*
X032115Y015122D01*
X029402Y015122D02*
X029402Y015409D01*
X029402Y015265D02*
X028971Y015265D01*
X029115Y015122D01*
X026402Y015122D02*
X026402Y015409D01*
X026402Y015265D02*
X025971Y015265D01*
X026115Y015122D01*
X023402Y015122D02*
X023402Y015409D01*
X023402Y015265D02*
X022971Y015265D01*
X023115Y015122D01*
X022166Y017422D02*
X022166Y017709D01*
X021951Y017637D02*
X022166Y017422D01*
X022382Y017637D02*
X021951Y017637D01*
X024951Y017637D02*
X025166Y017422D01*
X025166Y017709D01*
X024951Y017637D02*
X025382Y017637D01*
X027951Y017637D02*
X028166Y017422D01*
X028166Y017709D01*
X027951Y017637D02*
X028382Y017637D01*
X030951Y017637D02*
X031166Y017422D01*
X031166Y017709D01*
X030951Y017637D02*
X031382Y017637D01*
X031402Y022122D02*
X031402Y022409D01*
X031402Y022265D02*
X030971Y022265D01*
X031115Y022122D01*
X028402Y022122D02*
X028402Y022409D01*
X028402Y022265D02*
X027971Y022265D01*
X028115Y022122D01*
X025402Y022122D02*
X025402Y022409D01*
X025402Y022265D02*
X024971Y022265D01*
X025115Y022122D01*
X022402Y022122D02*
X022402Y022409D01*
X022402Y022265D02*
X021971Y022265D01*
X022115Y022122D01*
X014746Y023882D02*
X014326Y023882D01*
X014536Y023882D02*
X014536Y024513D01*
X014326Y024303D01*
X014101Y024513D02*
X014101Y023987D01*
X013996Y023882D01*
X013786Y023882D01*
X013681Y023987D01*
X013681Y024513D01*
X006391Y022632D02*
X005970Y022632D01*
X006180Y022632D02*
X006180Y023263D01*
X005970Y023053D01*
X005746Y023158D02*
X005746Y022947D01*
X005641Y022842D01*
X005326Y022842D01*
X005326Y022632D02*
X005326Y023263D01*
X005641Y023263D01*
X005746Y023158D01*
X005101Y023263D02*
X004891Y023263D01*
X004996Y023263D02*
X004996Y022737D01*
X004891Y022632D01*
X004786Y022632D01*
X004681Y022737D01*
D13*
X003396Y022347D02*
X003396Y020597D01*
X003446Y020597D01*
X003446Y020097D01*
X003396Y020097D01*
X003396Y019147D01*
X003796Y019147D01*
X003896Y019147D01*
X003896Y021847D01*
X006396Y021847D01*
X006396Y014847D01*
X003896Y014847D01*
X003896Y016547D01*
X003896Y017147D01*
X003896Y017547D01*
X003796Y017547D01*
X003396Y017547D01*
X003396Y019147D01*
X003896Y019147D02*
X004196Y019147D01*
X004196Y017547D01*
X003896Y017547D01*
X004021Y017851D02*
X004021Y018152D01*
X004021Y018002D02*
X003571Y018002D01*
X003721Y017851D01*
X003396Y017547D02*
X003396Y017497D01*
X003596Y017347D01*
X003596Y017147D01*
X003596Y016547D01*
X003796Y016547D01*
X003896Y016547D01*
X003596Y016547D02*
X003596Y016347D01*
X003396Y016197D01*
X003396Y014347D01*
X006896Y014347D01*
X006896Y014847D01*
X006996Y014847D01*
X006996Y015347D01*
X006896Y015347D01*
X006896Y018097D01*
X006996Y018097D01*
X006996Y018597D01*
X006896Y018597D01*
X006896Y021347D01*
X006996Y021347D01*
X006996Y021847D01*
X006896Y021847D01*
X006896Y022347D01*
X003396Y022347D01*
X004871Y021212D02*
X004871Y020912D01*
X004871Y021062D02*
X004421Y021062D01*
X004571Y020912D01*
X005421Y020987D02*
X005496Y020912D01*
X005421Y020987D02*
X005421Y021137D01*
X005496Y021212D01*
X005571Y021212D01*
X005871Y020912D01*
X005871Y021212D01*
X003946Y018612D02*
X003646Y018612D01*
X003946Y018312D01*
X004021Y018387D01*
X004021Y018537D01*
X003946Y018612D01*
X003946Y018312D02*
X003646Y018312D01*
X003571Y018387D01*
X003571Y018537D01*
X003646Y018612D01*
X003596Y017147D02*
X003796Y017147D01*
X003896Y017147D01*
X007421Y017172D02*
X007421Y017623D01*
X007646Y017623D01*
X007721Y017548D01*
X007721Y017397D01*
X007646Y017322D01*
X007421Y017322D01*
X007571Y017322D02*
X007721Y017172D01*
X007881Y017247D02*
X007957Y017172D01*
X008107Y017172D01*
X008182Y017247D01*
X008182Y017322D01*
X008107Y017397D01*
X008032Y017397D01*
X008107Y017397D02*
X008182Y017472D01*
X008182Y017548D01*
X008107Y017623D01*
X007957Y017623D01*
X007881Y017548D01*
X007646Y016873D02*
X007421Y016873D01*
X007421Y016422D01*
X007421Y016572D02*
X007646Y016572D01*
X007721Y016647D01*
X007721Y016798D01*
X007646Y016873D01*
X007881Y016647D02*
X008107Y016647D01*
X008182Y016572D01*
X008182Y016497D01*
X008107Y016422D01*
X007957Y016422D01*
X007881Y016497D01*
X007881Y016647D01*
X008032Y016798D01*
X008182Y016873D01*
X007721Y016422D02*
X007571Y016572D01*
X007646Y015373D02*
X007421Y015373D01*
X007421Y014922D01*
X007421Y015072D02*
X007646Y015072D01*
X007721Y015147D01*
X007721Y015298D01*
X007646Y015373D01*
X007881Y015373D02*
X007881Y015147D01*
X008032Y015222D01*
X008107Y015222D01*
X008182Y015147D01*
X008182Y014997D01*
X008107Y014922D01*
X007957Y014922D01*
X007881Y014997D01*
X007721Y014922D02*
X007571Y015072D01*
X007881Y015373D02*
X008182Y015373D01*
X008107Y014623D02*
X007881Y014397D01*
X008182Y014397D01*
X008107Y014172D02*
X008107Y014623D01*
X007721Y014548D02*
X007721Y014397D01*
X007646Y014322D01*
X007421Y014322D01*
X007421Y014172D02*
X007421Y014623D01*
X007646Y014623D01*
X007721Y014548D01*
X007571Y014322D02*
X007721Y014172D01*
X008571Y013898D02*
X008571Y013597D01*
X008646Y013522D01*
X008796Y013522D01*
X008871Y013597D01*
X009031Y013597D02*
X009107Y013522D01*
X009257Y013522D01*
X009332Y013597D01*
X009332Y013747D01*
X009257Y013822D01*
X009182Y013822D01*
X009031Y013747D01*
X009031Y013973D01*
X009332Y013973D01*
X008871Y013898D02*
X008796Y013973D01*
X008646Y013973D01*
X008571Y013898D01*
X007466Y012853D02*
X007316Y012853D01*
X007241Y012778D01*
X007081Y012778D02*
X007005Y012853D01*
X006780Y012853D01*
X006780Y012402D01*
X007005Y012402D01*
X007081Y012477D01*
X007081Y012778D01*
X007466Y012853D02*
X007541Y012778D01*
X007541Y012702D01*
X007241Y012402D01*
X007541Y012402D01*
X008721Y011298D02*
X008721Y010997D01*
X008796Y010922D01*
X008946Y010922D01*
X009021Y010997D01*
X009181Y010922D02*
X009482Y011222D01*
X009482Y011298D01*
X009407Y011373D01*
X009257Y011373D01*
X009181Y011298D01*
X009021Y011298D02*
X008946Y011373D01*
X008796Y011373D01*
X008721Y011298D01*
X009181Y010922D02*
X009482Y010922D01*
X010721Y010997D02*
X010796Y010922D01*
X010946Y010922D01*
X011021Y010997D01*
X011181Y010997D02*
X011257Y010922D01*
X011407Y010922D01*
X011482Y010997D01*
X011482Y011072D01*
X011407Y011147D01*
X011332Y011147D01*
X011407Y011147D02*
X011482Y011222D01*
X011482Y011298D01*
X011407Y011373D01*
X011257Y011373D01*
X011181Y011298D01*
X011021Y011298D02*
X010946Y011373D01*
X010796Y011373D01*
X010721Y011298D01*
X010721Y010997D01*
X005932Y010422D02*
X005631Y010422D01*
X005782Y010422D02*
X005782Y010873D01*
X005631Y010722D01*
X005471Y010647D02*
X005471Y010798D01*
X005396Y010873D01*
X005171Y010873D01*
X005171Y010422D01*
X005171Y010572D02*
X005396Y010572D01*
X005471Y010647D01*
X005321Y010572D02*
X005471Y010422D01*
X004011Y011822D02*
X003711Y011822D01*
X004011Y012122D01*
X004011Y012198D01*
X003936Y012273D01*
X003786Y012273D01*
X003711Y012198D01*
X003551Y012198D02*
X003551Y012047D01*
X003475Y011972D01*
X003250Y011972D01*
X003250Y011822D02*
X003250Y012273D01*
X003475Y012273D01*
X003551Y012198D01*
X003400Y011972D02*
X003551Y011822D01*
X007171Y007473D02*
X007471Y007022D01*
X007631Y007022D02*
X007932Y007022D01*
X007782Y007022D02*
X007782Y007473D01*
X007631Y007322D01*
X007471Y007473D02*
X007171Y007022D01*
X011250Y006523D02*
X011250Y006072D01*
X011250Y006222D02*
X011475Y006222D01*
X011551Y006297D01*
X011551Y006448D01*
X011475Y006523D01*
X011250Y006523D01*
X011400Y006222D02*
X011551Y006072D01*
X011711Y006072D02*
X011711Y006147D01*
X012011Y006448D01*
X012011Y006523D01*
X011711Y006523D01*
X011786Y005523D02*
X011711Y005448D01*
X011711Y005372D01*
X011786Y005297D01*
X011936Y005297D01*
X012011Y005222D01*
X012011Y005147D01*
X011936Y005072D01*
X011786Y005072D01*
X011711Y005147D01*
X011711Y005222D01*
X011786Y005297D01*
X011936Y005297D02*
X012011Y005372D01*
X012011Y005448D01*
X011936Y005523D01*
X011786Y005523D01*
X011551Y005448D02*
X011551Y005297D01*
X011475Y005222D01*
X011250Y005222D01*
X011250Y005072D02*
X011250Y005523D01*
X011475Y005523D01*
X011551Y005448D01*
X011400Y005222D02*
X011551Y005072D01*
X011232Y002323D02*
X011232Y001872D01*
X011382Y001872D02*
X011081Y001872D01*
X010921Y001947D02*
X010846Y001872D01*
X010696Y001872D01*
X010621Y001947D01*
X010621Y002248D01*
X010696Y002323D01*
X010846Y002323D01*
X010921Y002248D01*
X011081Y002172D02*
X011232Y002323D01*
X006902Y003092D02*
X006601Y003092D01*
X006752Y003092D02*
X006752Y003543D01*
X006601Y003392D01*
X006441Y003468D02*
X006366Y003543D01*
X006141Y003543D01*
X006141Y003092D01*
X006366Y003092D01*
X006441Y003167D01*
X006441Y003468D01*
X020321Y009847D02*
X020396Y009772D01*
X020546Y009772D01*
X020621Y009847D01*
X020781Y009847D02*
X020857Y009772D01*
X021007Y009772D01*
X021082Y009847D01*
X021082Y009922D01*
X021007Y009997D01*
X020781Y009997D01*
X020781Y009847D01*
X020781Y009997D02*
X020932Y010148D01*
X021082Y010223D01*
X020621Y010148D02*
X020546Y010223D01*
X020396Y010223D01*
X020321Y010148D01*
X020321Y009847D01*
X021996Y011347D02*
X021996Y011447D01*
X021996Y011347D02*
X022146Y011347D01*
X024296Y011797D02*
X024296Y010847D01*
X024996Y011347D02*
X024996Y011447D01*
X024996Y011347D02*
X025146Y011347D01*
X027296Y011797D02*
X027296Y010847D01*
X027996Y011347D02*
X027996Y011447D01*
X027996Y011347D02*
X028146Y011347D01*
X030296Y011797D02*
X030296Y010847D01*
X030996Y011347D02*
X030996Y011447D01*
X030996Y011347D02*
X031146Y011347D01*
X033296Y011797D02*
X033296Y010847D01*
X035221Y009562D02*
X035671Y009562D01*
X035671Y009412D02*
X035671Y009712D01*
X035371Y009412D02*
X035221Y009562D01*
X035671Y009252D02*
X035671Y008951D01*
X035221Y008951D01*
X035396Y012162D02*
X035321Y012237D01*
X035321Y012387D01*
X035396Y012462D01*
X035471Y012462D01*
X035546Y012387D01*
X035546Y012237D01*
X035471Y012162D01*
X035396Y012162D01*
X035546Y012237D02*
X035621Y012162D01*
X035696Y012162D01*
X035771Y012237D01*
X035771Y012387D01*
X035696Y012462D01*
X035621Y012462D01*
X035546Y012387D01*
X032296Y017847D02*
X032296Y018797D01*
X033521Y019262D02*
X033971Y019262D01*
X033971Y019112D02*
X033971Y019412D01*
X033671Y019112D02*
X033521Y019262D01*
X035321Y019177D02*
X035321Y018951D01*
X035771Y018951D01*
X035621Y018951D02*
X035621Y019177D01*
X035546Y019252D01*
X035396Y019252D01*
X035321Y019177D01*
X035396Y019412D02*
X035321Y019487D01*
X035321Y019637D01*
X035396Y019712D01*
X035471Y019712D01*
X035546Y019637D01*
X035621Y019712D01*
X035696Y019712D01*
X035771Y019637D01*
X035771Y019487D01*
X035696Y019412D01*
X035546Y019562D02*
X035546Y019637D01*
X035321Y018791D02*
X035321Y018641D01*
X035321Y018716D02*
X035696Y018716D01*
X035771Y018641D01*
X035771Y018566D01*
X035696Y018491D01*
X038321Y021641D02*
X038321Y021791D01*
X038321Y021716D02*
X038696Y021716D01*
X038771Y021641D01*
X038771Y021566D01*
X038696Y021491D01*
X038621Y021951D02*
X038621Y022177D01*
X038546Y022252D01*
X038396Y022252D01*
X038321Y022177D01*
X038321Y021951D01*
X038771Y021951D01*
X038771Y022412D02*
X038471Y022712D01*
X038396Y022712D01*
X038321Y022637D01*
X038321Y022487D01*
X038396Y022412D01*
X038771Y022412D02*
X038771Y022712D01*
X035971Y022412D02*
X035971Y022112D01*
X035971Y022262D02*
X035521Y022262D01*
X035671Y022112D01*
X029996Y018447D02*
X029996Y018347D01*
X030146Y018347D01*
X029296Y018797D02*
X029296Y017847D01*
X027146Y018347D02*
X026996Y018347D01*
X026996Y018447D01*
X026296Y018797D02*
X026296Y017847D01*
X024146Y018347D02*
X023996Y018347D01*
X023996Y018447D01*
X023296Y018797D02*
X023296Y017847D01*
X021146Y018347D02*
X020996Y018347D01*
X020996Y018447D01*
X021007Y014223D02*
X020781Y013997D01*
X021082Y013997D01*
X021007Y013772D02*
X021007Y014223D01*
X020621Y014148D02*
X020546Y014223D01*
X020396Y014223D01*
X020321Y014148D01*
X020321Y013847D01*
X020396Y013772D01*
X020546Y013772D01*
X020621Y013847D01*
X038321Y003637D02*
X038321Y003487D01*
X038396Y003412D01*
X038696Y003412D01*
X038396Y003712D01*
X038696Y003712D01*
X038771Y003637D01*
X038771Y003487D01*
X038696Y003412D01*
X038546Y003252D02*
X038546Y002951D01*
X038321Y003177D01*
X038771Y003177D01*
X038321Y003637D02*
X038396Y003712D01*
D14*
X006496Y014747D02*
X006496Y021947D01*
X003796Y021947D01*
X003796Y019147D01*
X003796Y017547D02*
X003796Y017147D01*
X003796Y016547D02*
X003796Y014747D01*
X006496Y014747D01*
X004433Y007857D02*
X003646Y007857D01*
X003646Y007611D01*
X003646Y007316D01*
X003843Y007316D02*
X003646Y007611D01*
X004040Y007611D01*
X003843Y007316D01*
X003646Y007316D02*
X003648Y007289D01*
X003653Y007263D01*
X003662Y007238D01*
X003675Y007214D01*
X003690Y007192D01*
X003709Y007172D01*
X003729Y007155D01*
X003752Y007141D01*
X003777Y007130D01*
X003803Y007123D01*
X003830Y007119D01*
X003856Y007119D01*
X003883Y007123D01*
X003909Y007130D01*
X003934Y007141D01*
X003957Y007155D01*
X003977Y007172D01*
X003996Y007192D01*
X004011Y007214D01*
X004024Y007238D01*
X004033Y007263D01*
X004038Y007289D01*
X004040Y007316D01*
X004237Y007316D02*
X004040Y007611D01*
X004433Y007611D01*
X004433Y007316D01*
X004434Y007316D02*
X004432Y007289D01*
X004427Y007263D01*
X004418Y007238D01*
X004405Y007214D01*
X004390Y007192D01*
X004371Y007172D01*
X004351Y007155D01*
X004328Y007141D01*
X004303Y007130D01*
X004277Y007123D01*
X004250Y007119D01*
X004224Y007119D01*
X004197Y007123D01*
X004171Y007130D01*
X004146Y007141D01*
X004123Y007155D01*
X004103Y007172D01*
X004084Y007192D01*
X004069Y007214D01*
X004056Y007238D01*
X004047Y007263D01*
X004042Y007289D01*
X004040Y007316D01*
X004237Y007316D02*
X004433Y007611D01*
X004433Y007857D01*
X004433Y007020D02*
X003646Y007020D01*
X003646Y006331D01*
X003843Y006331D01*
X003843Y006774D01*
X003941Y006774D01*
X003941Y006331D01*
X004138Y006331D01*
X004138Y006774D01*
X004237Y006774D01*
X004237Y006331D01*
X004433Y006331D01*
X004433Y007020D01*
X004433Y006233D02*
X003646Y006233D01*
X003646Y005987D01*
X003941Y005987D01*
X003646Y005790D01*
X003646Y005495D01*
X003941Y005692D01*
X004089Y005839D02*
X004089Y005987D01*
X004237Y005987D01*
X004237Y005839D01*
X004235Y005824D01*
X004231Y005809D01*
X004223Y005796D01*
X004213Y005784D01*
X004200Y005775D01*
X004186Y005769D01*
X004171Y005765D01*
X004155Y005765D01*
X004140Y005769D01*
X004126Y005775D01*
X004113Y005784D01*
X004103Y005796D01*
X004095Y005809D01*
X004091Y005824D01*
X004089Y005839D01*
X003941Y005692D02*
X003943Y005662D01*
X003948Y005633D01*
X003957Y005605D01*
X003969Y005578D01*
X003985Y005552D01*
X004003Y005529D01*
X004024Y005508D01*
X004047Y005490D01*
X004073Y005474D01*
X004100Y005462D01*
X004128Y005453D01*
X004157Y005448D01*
X004187Y005446D01*
X004217Y005448D01*
X004246Y005453D01*
X004274Y005462D01*
X004301Y005474D01*
X004327Y005490D01*
X004350Y005508D01*
X004371Y005529D01*
X004389Y005552D01*
X004405Y005578D01*
X004417Y005605D01*
X004426Y005633D01*
X004431Y005662D01*
X004433Y005692D01*
X004433Y006233D01*
X003646Y005003D02*
X003648Y004943D01*
X003654Y004883D01*
X003664Y004824D01*
X003678Y004765D01*
X003695Y004708D01*
X003695Y004707D02*
X004040Y004707D01*
X004040Y004904D01*
X004237Y004904D02*
X004235Y004931D01*
X004230Y004957D01*
X004221Y004982D01*
X004208Y005006D01*
X004193Y005028D01*
X004174Y005048D01*
X004154Y005065D01*
X004131Y005079D01*
X004106Y005090D01*
X004080Y005097D01*
X004053Y005101D01*
X004027Y005101D01*
X004000Y005097D01*
X003974Y005090D01*
X003949Y005079D01*
X003926Y005065D01*
X003906Y005048D01*
X003887Y005028D01*
X003872Y005006D01*
X003859Y004982D01*
X003850Y004957D01*
X003845Y004931D01*
X003843Y004904D01*
X004040Y004904D01*
X004434Y005003D02*
X004432Y005042D01*
X004426Y005080D01*
X004417Y005117D01*
X004404Y005154D01*
X004387Y005189D01*
X004368Y005222D01*
X004345Y005253D01*
X004319Y005282D01*
X004290Y005308D01*
X004259Y005331D01*
X004226Y005350D01*
X004191Y005367D01*
X004154Y005380D01*
X004117Y005389D01*
X004079Y005395D01*
X004040Y005397D01*
X004001Y005395D01*
X003963Y005389D01*
X003926Y005380D01*
X003889Y005367D01*
X003854Y005350D01*
X003821Y005331D01*
X003790Y005308D01*
X003761Y005282D01*
X003735Y005253D01*
X003712Y005222D01*
X003693Y005189D01*
X003676Y005154D01*
X003663Y005117D01*
X003654Y005080D01*
X003648Y005042D01*
X003646Y005003D01*
X004236Y004904D02*
X004241Y004855D01*
X004243Y004806D01*
X004241Y004757D01*
X004236Y004708D01*
X004237Y004709D02*
X004412Y004709D01*
X004412Y004704D02*
X004423Y004778D01*
X004430Y004853D01*
X004434Y004928D01*
X004433Y005003D01*
D15*
X004900Y004024D02*
X006351Y004024D01*
X006351Y008670D01*
X004900Y008670D01*
X003351Y008670D02*
X000150Y008670D01*
X000150Y004024D01*
X003351Y004024D01*
X007146Y003847D02*
X007146Y004347D01*
X007146Y003847D02*
X007646Y003847D01*
X007646Y003997D01*
X007646Y003847D02*
X008146Y003847D01*
X008146Y003347D01*
X008146Y002847D02*
X007646Y002847D01*
X007146Y002847D01*
X007646Y003847D01*
X008146Y002847D01*
X007646Y002847D02*
X007646Y002697D01*
X021996Y010847D02*
X021996Y011347D01*
X022396Y011347D01*
X022596Y011447D01*
X022596Y014247D01*
X022396Y014347D01*
X021996Y014347D01*
X021996Y014247D02*
X022396Y014247D01*
X022396Y014347D01*
X022396Y014247D02*
X022396Y011447D01*
X021996Y011447D01*
X021996Y011347D02*
X021996Y011847D01*
X021996Y014847D01*
X023146Y014847D01*
X024296Y014847D01*
X024296Y014597D01*
X024046Y014597D01*
X024046Y014097D01*
X024296Y014097D01*
X024296Y013597D01*
X024046Y013597D01*
X024046Y013097D01*
X024296Y013097D01*
X024296Y012597D01*
X024296Y011097D01*
X024046Y011097D01*
X024046Y011597D01*
X024296Y011597D01*
X024296Y012097D01*
X024046Y012097D01*
X024046Y012597D01*
X024296Y012597D01*
X024296Y011797D02*
X024296Y014847D01*
X024996Y014847D02*
X024996Y011847D01*
X024996Y011347D01*
X025396Y011347D01*
X025596Y011447D01*
X025596Y014247D01*
X025396Y014347D01*
X024996Y014347D01*
X024996Y014247D02*
X025396Y014247D01*
X025396Y014347D01*
X025396Y014247D02*
X025396Y011447D01*
X024996Y011447D01*
X024996Y011347D02*
X024996Y010847D01*
X026146Y010847D01*
X027296Y010847D01*
X027296Y010947D02*
X027296Y011097D01*
X027296Y012597D01*
X027296Y013097D01*
X027046Y013097D01*
X027046Y013597D01*
X027296Y013597D01*
X027296Y014097D01*
X027046Y014097D01*
X027046Y014597D01*
X027296Y014597D01*
X027296Y014847D01*
X027296Y011797D01*
X027296Y011597D02*
X027296Y012097D01*
X027046Y012097D01*
X027046Y012597D01*
X027296Y012597D01*
X027996Y011847D02*
X027996Y014847D01*
X029146Y014847D01*
X030296Y014847D01*
X030296Y014597D01*
X030046Y014597D01*
X030046Y014097D01*
X030296Y014097D01*
X030296Y013597D01*
X030046Y013597D01*
X030046Y013097D01*
X030296Y013097D01*
X030296Y012597D01*
X030296Y011097D01*
X030046Y011097D01*
X030046Y011597D01*
X030296Y011597D01*
X030296Y012097D01*
X030046Y012097D01*
X030046Y012597D01*
X030296Y012597D01*
X030296Y011797D02*
X030296Y014847D01*
X030996Y014847D02*
X030996Y011847D01*
X030996Y011347D01*
X031396Y011347D01*
X031596Y011447D01*
X031596Y014247D01*
X031396Y014347D01*
X030996Y014347D01*
X030996Y014247D02*
X031396Y014247D01*
X031396Y014347D01*
X031396Y014247D02*
X031396Y011447D01*
X030996Y011447D01*
X030996Y011347D02*
X030996Y010847D01*
X032146Y010847D01*
X033296Y010847D01*
X033296Y010947D02*
X033296Y011097D01*
X033296Y012597D01*
X033296Y013097D01*
X033046Y013097D01*
X033046Y013597D01*
X033296Y013597D01*
X033296Y014097D01*
X033046Y014097D01*
X033046Y014597D01*
X033296Y014597D01*
X033296Y014847D01*
X033296Y011797D01*
X033296Y011597D02*
X033046Y011597D01*
X033046Y011097D01*
X033296Y011097D01*
X033296Y011597D02*
X033296Y012097D01*
X033046Y012097D01*
X033046Y012597D01*
X033296Y012597D01*
X031396Y011447D02*
X031396Y011347D01*
X030296Y011097D02*
X030296Y010947D01*
X030296Y010847D02*
X029146Y010847D01*
X027996Y010847D01*
X027996Y011347D01*
X028396Y011347D01*
X028596Y011447D01*
X028596Y014247D01*
X028396Y014347D01*
X027996Y014347D01*
X027996Y014247D02*
X028396Y014247D01*
X028396Y014347D01*
X028396Y014247D02*
X028396Y011447D01*
X027996Y011447D01*
X027996Y011347D02*
X027996Y011847D01*
X028396Y011447D02*
X028396Y011347D01*
X027296Y011097D02*
X027046Y011097D01*
X027046Y011597D01*
X027296Y011597D01*
X025396Y011447D02*
X025396Y011347D01*
X024296Y011097D02*
X024296Y010947D01*
X024296Y010847D02*
X023146Y010847D01*
X021996Y010847D01*
X022396Y011347D02*
X022396Y011447D01*
X024996Y014847D02*
X026146Y014847D01*
X027296Y014847D01*
X030996Y014847D02*
X032146Y014847D01*
X033296Y014847D01*
X032296Y017847D02*
X031146Y017847D01*
X029996Y017847D01*
X029996Y018347D01*
X030396Y018347D01*
X030596Y018447D01*
X030596Y021247D01*
X030396Y021347D01*
X029996Y021347D01*
X029996Y021247D02*
X030396Y021247D01*
X030396Y021347D01*
X030396Y021247D02*
X030396Y018447D01*
X029996Y018447D01*
X029996Y018347D02*
X029996Y018847D01*
X029996Y021847D01*
X031146Y021847D01*
X032296Y021847D01*
X032296Y021597D01*
X032046Y021597D01*
X032046Y021097D01*
X032296Y021097D01*
X032296Y020597D01*
X032046Y020597D01*
X032046Y020097D01*
X032296Y020097D01*
X032296Y019597D01*
X032296Y018097D01*
X032046Y018097D01*
X032046Y018597D01*
X032296Y018597D01*
X032296Y019097D01*
X032046Y019097D01*
X032046Y019597D01*
X032296Y019597D01*
X032296Y018797D02*
X032296Y021847D01*
X029296Y021847D02*
X029296Y021597D01*
X029046Y021597D01*
X029046Y021097D01*
X029296Y021097D01*
X029296Y020597D01*
X029046Y020597D01*
X029046Y020097D01*
X029296Y020097D01*
X029296Y019597D01*
X029296Y018097D01*
X029046Y018097D01*
X029046Y018597D01*
X029296Y018597D01*
X029296Y019097D01*
X029046Y019097D01*
X029046Y019597D01*
X029296Y019597D01*
X029296Y018797D02*
X029296Y021847D01*
X028146Y021847D01*
X026996Y021847D01*
X026996Y018847D01*
X026996Y018347D01*
X027396Y018347D01*
X027596Y018447D01*
X027596Y021247D01*
X027396Y021347D01*
X026996Y021347D01*
X026996Y021247D02*
X027396Y021247D01*
X027396Y021347D01*
X027396Y021247D02*
X027396Y018447D01*
X026996Y018447D01*
X026996Y018347D02*
X026996Y017847D01*
X028146Y017847D01*
X029296Y017847D01*
X029296Y017947D02*
X029296Y018097D01*
X030396Y018347D02*
X030396Y018447D01*
X032296Y018097D02*
X032296Y017947D01*
X027396Y018347D02*
X027396Y018447D01*
X026296Y018597D02*
X026296Y019097D01*
X026046Y019097D01*
X026046Y019597D01*
X026296Y019597D01*
X026296Y020097D01*
X026046Y020097D01*
X026046Y020597D01*
X026296Y020597D01*
X026296Y021097D01*
X026046Y021097D01*
X026046Y021597D01*
X026296Y021597D01*
X026296Y021847D01*
X026296Y018797D01*
X026296Y018597D02*
X026046Y018597D01*
X026046Y018097D01*
X026296Y018097D01*
X026296Y019597D01*
X024596Y018447D02*
X024596Y021247D01*
X024396Y021347D01*
X023996Y021347D01*
X023996Y021247D02*
X024396Y021247D01*
X024396Y021347D01*
X024396Y021247D02*
X024396Y018447D01*
X023996Y018447D01*
X023996Y018347D02*
X024396Y018347D01*
X024596Y018447D01*
X024396Y018447D02*
X024396Y018347D01*
X023996Y018347D02*
X023996Y018847D01*
X023996Y021847D01*
X025146Y021847D01*
X026296Y021847D01*
X023296Y021847D02*
X023296Y021597D01*
X023046Y021597D01*
X023046Y021097D01*
X023296Y021097D01*
X023296Y020597D01*
X023046Y020597D01*
X023046Y020097D01*
X023296Y020097D01*
X023296Y019597D01*
X023296Y018097D01*
X023046Y018097D01*
X023046Y018597D01*
X023296Y018597D01*
X023296Y019097D01*
X023046Y019097D01*
X023046Y019597D01*
X023296Y019597D01*
X023296Y018797D02*
X023296Y021847D01*
X022146Y021847D01*
X020996Y021847D01*
X020996Y018847D01*
X020996Y018347D01*
X021396Y018347D01*
X021596Y018447D01*
X021596Y021247D01*
X021396Y021347D01*
X020996Y021347D01*
X020996Y021247D02*
X021396Y021247D01*
X021396Y021347D01*
X021396Y021247D02*
X021396Y018447D01*
X020996Y018447D01*
X020996Y018347D02*
X020996Y017847D01*
X022146Y017847D01*
X023296Y017847D01*
X023296Y017947D02*
X023296Y018097D01*
X023996Y017847D02*
X023996Y018347D01*
X023996Y017847D02*
X025146Y017847D01*
X026296Y017847D01*
X026296Y017947D02*
X026296Y018097D01*
X021396Y018347D02*
X021396Y018447D01*
X006646Y013347D02*
X006146Y013347D01*
X006146Y013497D01*
X006146Y013347D02*
X005646Y013347D01*
X006146Y012347D01*
X006646Y012347D01*
X006646Y011847D01*
X006146Y012197D02*
X006146Y012347D01*
X005646Y012347D01*
X005646Y012847D01*
X006146Y012347D02*
X006646Y013347D01*
D16*
X003473Y007805D02*
X003498Y007780D01*
X003498Y007730D01*
X003473Y007705D01*
X003423Y007730D02*
X003423Y007780D01*
X003448Y007805D01*
X003473Y007805D01*
X003423Y007730D02*
X003398Y007705D01*
X003373Y007705D01*
X003348Y007730D01*
X003348Y007780D01*
X003373Y007805D01*
X003373Y007510D02*
X003348Y007485D01*
X003348Y007435D01*
X003373Y007410D01*
X003473Y007410D01*
X003498Y007435D01*
X003498Y007485D01*
X003473Y007510D01*
X003498Y007215D02*
X003498Y007165D01*
X003498Y007190D02*
X003348Y007190D01*
X003348Y007165D02*
X003348Y007215D01*
X003348Y006970D02*
X003498Y006970D01*
X003348Y006870D01*
X003498Y006870D01*
X003473Y006675D02*
X003373Y006675D01*
X003348Y006650D01*
X003348Y006600D01*
X003373Y006575D01*
X003473Y006575D01*
X003498Y006600D01*
X003498Y006650D01*
X003473Y006675D01*
X003498Y006381D02*
X003448Y006331D01*
X003448Y006356D02*
X003448Y006281D01*
X003498Y006281D02*
X003348Y006281D01*
X003348Y006356D01*
X003373Y006381D01*
X003423Y006381D01*
X003448Y006356D01*
X003348Y006086D02*
X003348Y005986D01*
X003348Y006036D02*
X003498Y006036D01*
X003473Y005792D02*
X003498Y005766D01*
X003498Y005716D01*
X003473Y005691D01*
X003373Y005691D01*
X003348Y005716D01*
X003348Y005766D01*
X003373Y005792D01*
X003348Y005497D02*
X003348Y005397D01*
X003498Y005397D01*
X003498Y005497D01*
X003423Y005447D02*
X003423Y005397D01*
X003498Y005202D02*
X003498Y005102D01*
X003348Y005102D01*
X003348Y004908D02*
X003348Y004807D01*
X003498Y004807D01*
X003498Y004908D01*
X003423Y004858D02*
X003423Y004807D01*
D17*
X003433Y008867D02*
X003126Y008867D01*
X003280Y008867D02*
X003280Y009328D01*
X003126Y009174D01*
X002973Y009328D02*
X002820Y009328D01*
X002896Y009328D02*
X002896Y008944D01*
X002820Y008867D01*
X002743Y008867D01*
X002666Y008944D01*
X020476Y017998D02*
X020476Y018118D01*
X020476Y018058D02*
X020777Y018058D01*
X020837Y017998D01*
X020837Y017938D01*
X020777Y017878D01*
X020837Y018246D02*
X020476Y018246D01*
X020476Y018426D01*
X020536Y018486D01*
X020656Y018486D01*
X020717Y018426D01*
X020717Y018246D01*
X020777Y018614D02*
X020837Y018614D01*
X020777Y018614D02*
X020536Y018855D01*
X020476Y018855D01*
X020476Y018614D01*
X023476Y018426D02*
X023476Y018246D01*
X023837Y018246D01*
X023717Y018246D02*
X023717Y018426D01*
X023656Y018486D01*
X023536Y018486D01*
X023476Y018426D01*
X023656Y018614D02*
X023536Y018735D01*
X023476Y018855D01*
X023656Y018795D02*
X023656Y018614D01*
X023777Y018614D01*
X023837Y018674D01*
X023837Y018795D01*
X023777Y018855D01*
X023717Y018855D01*
X023656Y018795D01*
X023476Y018118D02*
X023476Y017998D01*
X023476Y018058D02*
X023777Y018058D01*
X023837Y017998D01*
X023837Y017938D01*
X023777Y017878D01*
X026476Y017998D02*
X026476Y018118D01*
X026476Y018058D02*
X026777Y018058D01*
X026837Y017998D01*
X026837Y017938D01*
X026777Y017878D01*
X026837Y018246D02*
X026476Y018246D01*
X026476Y018426D01*
X026536Y018486D01*
X026656Y018486D01*
X026717Y018426D01*
X026717Y018246D01*
X026777Y018614D02*
X026837Y018674D01*
X026837Y018795D01*
X026777Y018855D01*
X026656Y018855D01*
X026596Y018795D01*
X026596Y018735D01*
X026656Y018614D01*
X026476Y018614D01*
X026476Y018855D01*
X029476Y018795D02*
X029656Y018614D01*
X029656Y018855D01*
X029476Y018795D02*
X029837Y018795D01*
X029656Y018486D02*
X029717Y018426D01*
X029717Y018246D01*
X029837Y018246D02*
X029476Y018246D01*
X029476Y018426D01*
X029536Y018486D01*
X029656Y018486D01*
X029476Y018118D02*
X029476Y017998D01*
X029476Y018058D02*
X029777Y018058D01*
X029837Y017998D01*
X029837Y017938D01*
X029777Y017878D01*
X024777Y012223D02*
X024837Y012163D01*
X024837Y012043D01*
X024777Y011983D01*
X024536Y012223D01*
X024777Y012223D01*
X024777Y011983D02*
X024536Y011983D01*
X024476Y012043D01*
X024476Y012163D01*
X024536Y012223D01*
X024837Y011855D02*
X024837Y011614D01*
X024837Y011735D02*
X024476Y011735D01*
X024596Y011614D01*
X024536Y011486D02*
X024656Y011486D01*
X024717Y011426D01*
X024717Y011246D01*
X024837Y011246D02*
X024476Y011246D01*
X024476Y011426D01*
X024536Y011486D01*
X024476Y011118D02*
X024476Y010998D01*
X024476Y011058D02*
X024777Y011058D01*
X024837Y010998D01*
X024837Y010938D01*
X024777Y010878D01*
X027476Y010998D02*
X027476Y011118D01*
X027476Y011058D02*
X027777Y011058D01*
X027837Y010998D01*
X027837Y010938D01*
X027777Y010878D01*
X027837Y011246D02*
X027476Y011246D01*
X027476Y011426D01*
X027536Y011486D01*
X027656Y011486D01*
X027717Y011426D01*
X027717Y011246D01*
X027777Y011614D02*
X027837Y011674D01*
X027837Y011795D01*
X027777Y011855D01*
X027536Y011855D01*
X027476Y011795D01*
X027476Y011674D01*
X027536Y011614D01*
X027596Y011614D01*
X027656Y011674D01*
X027656Y011855D01*
X030476Y011795D02*
X030476Y011674D01*
X030536Y011614D01*
X030596Y011614D01*
X030656Y011674D01*
X030656Y011795D01*
X030717Y011855D01*
X030777Y011855D01*
X030837Y011795D01*
X030837Y011674D01*
X030777Y011614D01*
X030717Y011614D01*
X030656Y011674D01*
X030656Y011795D02*
X030596Y011855D01*
X030536Y011855D01*
X030476Y011795D01*
X030536Y011486D02*
X030656Y011486D01*
X030717Y011426D01*
X030717Y011246D01*
X030837Y011246D02*
X030476Y011246D01*
X030476Y011426D01*
X030536Y011486D01*
X030476Y011118D02*
X030476Y010998D01*
X030476Y011058D02*
X030777Y011058D01*
X030837Y010998D01*
X030837Y010938D01*
X030777Y010878D01*
X021837Y010938D02*
X021837Y010998D01*
X021777Y011058D01*
X021476Y011058D01*
X021476Y010998D02*
X021476Y011118D01*
X021476Y011246D02*
X021476Y011426D01*
X021536Y011486D01*
X021656Y011486D01*
X021717Y011426D01*
X021717Y011246D01*
X021837Y011246D02*
X021476Y011246D01*
X021596Y011614D02*
X021476Y011735D01*
X021837Y011735D01*
X021837Y011855D02*
X021837Y011614D01*
X021837Y011983D02*
X021837Y012223D01*
X021837Y012103D02*
X021476Y012103D01*
X021596Y011983D01*
X021837Y010938D02*
X021777Y010878D01*
D18*
X011296Y008747D02*
X008996Y008747D01*
X008937Y008745D01*
X008879Y008739D01*
X008820Y008730D01*
X008763Y008716D01*
X008707Y008699D01*
X008652Y008678D01*
X008598Y008654D01*
X008546Y008626D01*
X008496Y008595D01*
X008448Y008561D01*
X008403Y008524D01*
X008360Y008483D01*
X008319Y008440D01*
X008282Y008395D01*
X008248Y008347D01*
X008217Y008297D01*
X008189Y008245D01*
X008165Y008191D01*
X008144Y008136D01*
X008127Y008080D01*
X008113Y008023D01*
X008104Y007964D01*
X008098Y007906D01*
X008096Y007847D01*
X008098Y007788D01*
X008104Y007730D01*
X008113Y007671D01*
X008127Y007614D01*
X008144Y007558D01*
X008165Y007503D01*
X008189Y007449D01*
X008217Y007397D01*
X008248Y007347D01*
X008282Y007299D01*
X008319Y007254D01*
X008360Y007211D01*
X008403Y007170D01*
X008448Y007133D01*
X008496Y007099D01*
X008546Y007068D01*
X008598Y007040D01*
X008652Y007016D01*
X008707Y006995D01*
X008763Y006978D01*
X008820Y006964D01*
X008879Y006955D01*
X008937Y006949D01*
X008996Y006947D01*
X011296Y006947D01*
X011355Y006949D01*
X011413Y006955D01*
X011472Y006964D01*
X011529Y006978D01*
X011585Y006995D01*
X011640Y007016D01*
X011694Y007040D01*
X011746Y007068D01*
X011796Y007099D01*
X011844Y007133D01*
X011889Y007170D01*
X011932Y007211D01*
X011973Y007254D01*
X012010Y007299D01*
X012044Y007347D01*
X012075Y007397D01*
X012103Y007449D01*
X012127Y007503D01*
X012148Y007558D01*
X012165Y007614D01*
X012179Y007671D01*
X012188Y007730D01*
X012194Y007788D01*
X012196Y007847D01*
X012194Y007906D01*
X012188Y007964D01*
X012179Y008023D01*
X012165Y008080D01*
X012148Y008136D01*
X012127Y008191D01*
X012103Y008245D01*
X012075Y008297D01*
X012044Y008347D01*
X012010Y008395D01*
X011973Y008440D01*
X011932Y008483D01*
X011889Y008524D01*
X011844Y008561D01*
X011796Y008595D01*
X011746Y008626D01*
X011694Y008654D01*
X011640Y008678D01*
X011585Y008699D01*
X011529Y008716D01*
X011472Y008730D01*
X011413Y008739D01*
X011355Y008745D01*
X011296Y008747D01*
D19*
X011446Y009727D02*
X010846Y009727D01*
X010846Y009977D02*
X011446Y009977D01*
X009446Y009977D02*
X008846Y009977D01*
X008846Y009727D02*
X009446Y009727D01*
X011026Y013597D02*
X011026Y013847D01*
X011026Y014097D01*
X011276Y014097D02*
X011276Y013847D01*
X011276Y013597D01*
X020396Y011967D02*
X020646Y011967D01*
X020896Y011967D01*
X020896Y011717D02*
X020646Y011717D01*
X020396Y011717D01*
X020396Y015727D02*
X020646Y015727D01*
X020896Y015727D01*
X020896Y015977D02*
X020646Y015977D01*
X020396Y015977D01*
M02*
