G75*
G70*
%OFA0B0*%
%FSLAX24Y24*%
%IPPOS*%
%LPD*%
%AMOC8*
5,1,8,0,0,1.08239X$1,22.5*
%
%ADD10C,0.0480*%
%ADD11OC8,0.0540*%
%ADD12OC8,0.0561*%
%ADD13C,0.1306*%
%ADD14OC8,0.0600*%
%ADD15C,0.0600*%
%ADD16OC8,0.0480*%
%ADD17OC8,0.0630*%
%ADD18C,0.0630*%
%ADD19C,0.0480*%
%ADD20C,0.0100*%
%ADD21C,0.0380*%
D10*
X012906Y003847D02*
X013386Y003847D01*
X013386Y004847D02*
X012906Y004847D01*
X012906Y005847D02*
X013386Y005847D01*
X013386Y006847D02*
X012906Y006847D01*
X012906Y007847D02*
X013386Y007847D01*
X013386Y008847D02*
X012906Y008847D01*
X012906Y009847D02*
X013386Y009847D01*
X013386Y010847D02*
X012906Y010847D01*
X012906Y011847D02*
X013386Y011847D01*
X013386Y012847D02*
X012906Y012847D01*
X012906Y013847D02*
X013386Y013847D01*
X013386Y014847D02*
X012906Y014847D01*
X012906Y015847D02*
X013386Y015847D01*
X013386Y016847D02*
X012906Y016847D01*
X012906Y017847D02*
X013386Y017847D01*
X013386Y018847D02*
X012906Y018847D01*
X012906Y019847D02*
X013386Y019847D01*
X013386Y020847D02*
X012906Y020847D01*
X012906Y021847D02*
X013386Y021847D01*
X013386Y022847D02*
X012906Y022847D01*
X018906Y022847D02*
X019386Y022847D01*
X019386Y021847D02*
X018906Y021847D01*
X018906Y020847D02*
X019386Y020847D01*
X019386Y019847D02*
X018906Y019847D01*
X018906Y018847D02*
X019386Y018847D01*
X019386Y017847D02*
X018906Y017847D01*
X018906Y016847D02*
X019386Y016847D01*
X019386Y015847D02*
X018906Y015847D01*
X018906Y014847D02*
X019386Y014847D01*
X019386Y013847D02*
X018906Y013847D01*
X018906Y012847D02*
X019386Y012847D01*
X019386Y011847D02*
X018906Y011847D01*
X018906Y010847D02*
X019386Y010847D01*
X019386Y009847D02*
X018906Y009847D01*
X018906Y008847D02*
X019386Y008847D01*
X019386Y007847D02*
X018906Y007847D01*
X018906Y006847D02*
X019386Y006847D01*
X019386Y005847D02*
X018906Y005847D01*
X018906Y004847D02*
X019386Y004847D01*
X019386Y003847D02*
X018906Y003847D01*
D11*
X005646Y016347D03*
X004646Y016347D03*
X004646Y017347D03*
X005646Y017347D03*
X005646Y018347D03*
X004646Y018347D03*
X004646Y019347D03*
X005646Y019347D03*
X005646Y020347D03*
X004646Y020347D03*
D12*
X005213Y006839D03*
X006000Y006839D03*
X006000Y005855D03*
X005213Y005855D03*
D13*
X004146Y003977D03*
X004146Y008717D03*
D14*
X036646Y008347D03*
X037646Y008347D03*
X037646Y007347D03*
X036646Y007347D03*
X036646Y006347D03*
X037646Y006347D03*
X037646Y005347D03*
X036646Y005347D03*
X036646Y004347D03*
X037646Y004347D03*
X037646Y003347D03*
X036646Y003347D03*
X036646Y009347D03*
X037646Y009347D03*
X037646Y010347D03*
X036646Y010347D03*
X036646Y011347D03*
X037646Y011347D03*
X037646Y012347D03*
X036646Y012347D03*
X036646Y013347D03*
X037646Y013347D03*
X037646Y014347D03*
X036646Y014347D03*
X036646Y015347D03*
X037646Y015347D03*
X037646Y016347D03*
X036646Y016347D03*
X036646Y017347D03*
X037646Y017347D03*
X037646Y018347D03*
X036646Y018347D03*
X036646Y019347D03*
X037646Y019347D03*
X037646Y020347D03*
X036646Y020347D03*
X036646Y021347D03*
X037646Y021347D03*
X037646Y022347D03*
X036646Y022347D03*
D15*
X034946Y019347D02*
X034346Y019347D01*
X034346Y018347D02*
X034946Y018347D01*
X034946Y017347D02*
X034346Y017347D01*
X034346Y016347D02*
X034946Y016347D01*
X034946Y015347D02*
X034346Y015347D01*
X034346Y014347D02*
X034946Y014347D01*
X034946Y013347D02*
X034346Y013347D01*
X034346Y012347D02*
X034946Y012347D01*
X032446Y012347D02*
X031846Y012347D01*
X031846Y011347D02*
X032446Y011347D01*
X032446Y013347D02*
X031846Y013347D01*
X031846Y014347D02*
X032446Y014347D01*
X029446Y014347D02*
X028846Y014347D01*
X028846Y013347D02*
X029446Y013347D01*
X029446Y012347D02*
X028846Y012347D01*
X028846Y011347D02*
X029446Y011347D01*
X026446Y011347D02*
X025846Y011347D01*
X025846Y012347D02*
X026446Y012347D01*
X026446Y013347D02*
X025846Y013347D01*
X025846Y014347D02*
X026446Y014347D01*
X023446Y014347D02*
X022846Y014347D01*
X022846Y013347D02*
X023446Y013347D01*
X023446Y012347D02*
X022846Y012347D01*
X022846Y011347D02*
X023446Y011347D01*
X022446Y018347D02*
X021846Y018347D01*
X021846Y019347D02*
X022446Y019347D01*
X022446Y020347D02*
X021846Y020347D01*
X021846Y021347D02*
X022446Y021347D01*
X024846Y021347D02*
X025446Y021347D01*
X025446Y020347D02*
X024846Y020347D01*
X024846Y019347D02*
X025446Y019347D01*
X025446Y018347D02*
X024846Y018347D01*
X027846Y018347D02*
X028446Y018347D01*
X028446Y019347D02*
X027846Y019347D01*
X027846Y020347D02*
X028446Y020347D01*
X028446Y021347D02*
X027846Y021347D01*
X030846Y021347D02*
X031446Y021347D01*
X031446Y020347D02*
X030846Y020347D01*
X030846Y019347D02*
X031446Y019347D01*
X031446Y018347D02*
X030846Y018347D01*
D16*
X020646Y016847D03*
X020646Y014847D03*
X020646Y012847D03*
X020646Y010847D03*
X012146Y013847D03*
X011646Y014847D03*
X011646Y015847D03*
X011646Y016847D03*
X011646Y017847D03*
X008646Y017847D03*
X008646Y016847D03*
X008646Y015847D03*
X008646Y014847D03*
X010146Y013847D03*
X006146Y013847D03*
X004646Y013847D03*
X006146Y011847D03*
X004646Y010847D03*
X004646Y009847D03*
X007646Y009847D03*
X009146Y009347D03*
X009146Y010347D03*
X011146Y010347D03*
X011146Y009347D03*
X010646Y006347D03*
X010646Y005347D03*
X007646Y005347D03*
X007646Y004347D03*
X007646Y006347D03*
X007646Y002347D03*
X034646Y007347D03*
X034646Y010347D03*
D17*
X009646Y002347D03*
D18*
X009646Y003347D03*
D19*
X009196Y007847D03*
X011096Y007847D03*
D20*
X011146Y007907D01*
X011146Y008867D01*
X013066Y010787D01*
X013146Y010847D01*
X013066Y011747D02*
X011626Y011747D01*
X009226Y009347D01*
X009146Y009347D01*
X009226Y009347D02*
X009226Y007907D01*
X009196Y007847D01*
X007546Y007307D02*
X007426Y007187D01*
X009586Y005027D01*
X009586Y003347D01*
X009646Y003347D01*
X009706Y003347D01*
X010426Y002627D01*
X037546Y002627D01*
X038146Y003227D01*
X038146Y009467D01*
X037666Y009947D01*
X037666Y010307D01*
X037646Y010347D01*
X037546Y010427D01*
X036706Y010427D01*
X036646Y010347D01*
X036586Y010307D01*
X034666Y010307D01*
X034646Y010347D01*
X034066Y009827D02*
X037066Y009827D01*
X037546Y009347D01*
X037646Y009347D01*
X037646Y008347D02*
X037546Y008267D01*
X037186Y007907D01*
X037186Y006227D01*
X036826Y005867D01*
X036466Y005867D01*
X035986Y005387D01*
X018706Y005387D01*
X018466Y005627D01*
X018466Y008147D01*
X019066Y008747D01*
X019146Y008847D01*
X019186Y009827D02*
X019146Y009847D01*
X019186Y009827D02*
X023026Y009827D01*
X024826Y008027D01*
X033346Y008027D01*
X034426Y006947D01*
X035266Y006947D01*
X036586Y008267D01*
X036646Y008347D01*
X036646Y007347D02*
X036586Y007307D01*
X036346Y007307D01*
X035746Y006707D01*
X034306Y006707D01*
X033226Y007787D01*
X019186Y007787D01*
X019146Y007847D01*
X019146Y006847D02*
X019186Y006827D01*
X033826Y006827D01*
X034186Y006467D01*
X035986Y006467D01*
X036586Y006347D02*
X036106Y005867D01*
X019186Y005867D01*
X019146Y005847D01*
X019186Y004907D02*
X019146Y004847D01*
X019186Y004907D02*
X035506Y004907D01*
X035266Y004427D02*
X018706Y004427D01*
X018346Y004787D01*
X013186Y004787D01*
X013146Y004847D01*
X012466Y005147D02*
X012466Y003707D01*
X013066Y003107D01*
X035746Y003107D01*
X036466Y003827D01*
X037066Y003827D01*
X037546Y004307D01*
X037646Y004347D01*
X037186Y004907D02*
X037546Y005267D01*
X037646Y005347D01*
X037186Y004907D02*
X036586Y004907D01*
X035026Y003347D01*
X018826Y003347D01*
X018346Y003827D01*
X013186Y003827D01*
X013146Y003847D01*
X012226Y003587D02*
X012946Y002867D01*
X036106Y002867D01*
X036586Y003347D01*
X036646Y003347D01*
X035266Y003947D02*
X036586Y005267D01*
X036646Y005347D01*
X036646Y006347D02*
X036586Y006347D01*
X034646Y007347D02*
X034546Y007427D01*
X034546Y008867D01*
X032146Y011267D01*
X032146Y011347D01*
X032146Y011387D01*
X029146Y011387D01*
X029146Y011347D01*
X029146Y011387D02*
X026146Y011387D01*
X026146Y011347D01*
X026146Y011387D02*
X025186Y011387D01*
X025186Y018347D01*
X025146Y018347D01*
X022146Y018347D01*
X021706Y018827D02*
X032626Y018827D01*
X033826Y020027D01*
X035986Y020027D01*
X036586Y019427D01*
X036646Y019347D01*
X036466Y019907D02*
X036106Y020267D01*
X032026Y020267D01*
X031666Y019907D01*
X024586Y019907D01*
X022666Y021827D01*
X021706Y021827D01*
X020146Y020267D01*
X017506Y020267D01*
X013186Y015947D01*
X013146Y015847D01*
X013066Y015827D01*
X011746Y015827D01*
X011646Y015847D01*
X011146Y015707D02*
X011506Y015347D01*
X013546Y015347D01*
X014506Y016307D01*
X024106Y016307D01*
X025546Y017027D02*
X029506Y017027D01*
X032146Y014387D01*
X032146Y014347D01*
X034646Y014347D02*
X034666Y014387D01*
X035986Y014387D01*
X036466Y014867D01*
X037066Y014867D01*
X037546Y015347D01*
X037646Y015347D01*
X037066Y015827D02*
X037546Y016307D01*
X037646Y016347D01*
X037186Y016907D02*
X037546Y017267D01*
X037646Y017347D01*
X037186Y016907D02*
X036466Y016907D01*
X035026Y018347D01*
X034646Y018347D01*
X034666Y019307D02*
X034646Y019347D01*
X034666Y019307D02*
X036586Y017387D01*
X036646Y017347D01*
X035746Y017267D02*
X036586Y016427D01*
X036646Y016347D01*
X036466Y015827D02*
X037066Y015827D01*
X036466Y015827D02*
X035986Y016307D01*
X034666Y016307D01*
X034646Y016347D01*
X034666Y017267D02*
X034646Y017347D01*
X034666Y017267D02*
X035746Y017267D01*
X036646Y015347D02*
X034646Y015347D01*
X035746Y013427D02*
X036586Y014267D01*
X036646Y014347D01*
X036586Y013907D02*
X037186Y013907D01*
X037546Y014267D01*
X037646Y014347D01*
X036586Y013907D02*
X035026Y012347D01*
X034646Y012347D01*
X034646Y013347D02*
X034666Y013427D01*
X035746Y013427D01*
X033586Y009347D02*
X024226Y009347D01*
X021226Y012347D01*
X018826Y012347D01*
X018466Y011987D01*
X018466Y011507D01*
X019066Y010907D01*
X019146Y010847D01*
X019186Y011747D02*
X019146Y011847D01*
X019186Y011747D02*
X021466Y011747D01*
X024466Y008747D01*
X034186Y008747D01*
X035266Y003947D02*
X019186Y003947D01*
X019146Y003847D01*
X013146Y005847D02*
X013066Y005747D01*
X012466Y005147D01*
X012226Y005747D02*
X012226Y003587D01*
X010646Y005347D02*
X010666Y005387D01*
X013066Y007787D01*
X013146Y007847D01*
X013186Y007907D01*
X013186Y008747D01*
X013146Y008847D01*
X012466Y008627D02*
X012466Y009227D01*
X013066Y009827D01*
X013146Y009847D01*
X012466Y008627D02*
X010666Y006827D01*
X010666Y006347D01*
X010646Y006347D01*
X012226Y005747D02*
X013066Y006587D01*
X013066Y006827D01*
X013146Y006847D01*
X011146Y008867D02*
X011146Y009347D01*
X008146Y010427D02*
X008146Y017507D01*
X005746Y019907D01*
X005746Y020267D01*
X005646Y020347D01*
X006106Y020387D02*
X006106Y020507D01*
X005746Y020867D01*
X005146Y020867D01*
X004666Y020387D01*
X004646Y020347D01*
X004186Y020507D02*
X004186Y018707D01*
X004546Y018347D01*
X004646Y018347D01*
X005146Y017867D02*
X004666Y017387D01*
X004646Y017347D01*
X005146Y017867D02*
X005866Y017867D01*
X007786Y015947D01*
X008746Y015347D02*
X009106Y015707D01*
X009106Y017987D01*
X005986Y021107D01*
X004786Y021107D01*
X004186Y020507D01*
X006106Y020387D02*
X008646Y017847D01*
X011146Y016307D02*
X011626Y016787D01*
X011646Y016847D01*
X011746Y016907D01*
X013066Y016907D01*
X013146Y016847D01*
X013146Y017847D02*
X013186Y017867D01*
X014626Y017867D01*
X018106Y021347D01*
X019546Y021347D01*
X019666Y021467D01*
X020026Y021467D01*
X019146Y021847D02*
X019186Y021947D01*
X021106Y021947D01*
X021466Y022307D01*
X027106Y022307D01*
X028066Y021347D01*
X028146Y021347D01*
X029026Y022547D02*
X030706Y020867D01*
X036106Y020867D01*
X036586Y020387D01*
X036646Y020347D01*
X036466Y019907D02*
X037906Y019907D01*
X038146Y020147D01*
X038146Y021467D01*
X037786Y021827D01*
X037546Y021827D01*
X037066Y022307D01*
X036706Y022307D01*
X036646Y022347D01*
X036466Y021827D02*
X037066Y021827D01*
X037546Y021347D01*
X037646Y021347D01*
X037066Y020867D02*
X037546Y020387D01*
X037646Y020347D01*
X037066Y020867D02*
X036466Y020867D01*
X034306Y023027D01*
X022066Y023027D01*
X021586Y023507D01*
X019426Y023507D01*
X019546Y024107D02*
X028546Y024107D01*
X029266Y024827D01*
X035866Y024827D01*
X038386Y022307D01*
X038386Y020027D01*
X037666Y019307D01*
X037646Y019347D01*
X036646Y021347D02*
X036346Y021347D01*
X034186Y023507D01*
X022066Y023507D01*
X021346Y022547D02*
X029026Y022547D01*
X029626Y022787D02*
X031066Y021347D01*
X031146Y021347D01*
X029626Y022787D02*
X019186Y022787D01*
X019146Y022847D01*
X018826Y022427D02*
X021226Y022427D01*
X021346Y022547D01*
X021586Y022067D02*
X024346Y022067D01*
X025066Y021347D01*
X025146Y021347D01*
X022146Y021347D02*
X022066Y021347D01*
X020626Y019907D01*
X019186Y019907D01*
X019146Y019847D01*
X019146Y018847D02*
X019186Y018827D01*
X020746Y018827D01*
X021826Y017747D01*
X024826Y017747D01*
X025186Y018347D02*
X028146Y018347D01*
X031146Y018347D01*
X036466Y021827D02*
X034306Y023987D01*
X028906Y023987D01*
X028426Y024467D02*
X013906Y024467D01*
X012466Y023027D01*
X012466Y019547D01*
X013066Y018947D01*
X013146Y018847D01*
X013066Y017867D02*
X011746Y017867D01*
X011646Y017847D01*
X013066Y017867D02*
X013146Y017847D01*
X011146Y016307D02*
X011146Y015707D01*
X011646Y014847D02*
X011746Y014867D01*
X013066Y014867D01*
X013146Y014847D01*
X013146Y013847D02*
X013066Y013787D01*
X012706Y013787D01*
X012346Y013427D01*
X010066Y013427D01*
X010066Y013787D01*
X010146Y013847D01*
X010066Y013427D02*
X010066Y012347D01*
X008146Y010427D01*
X007666Y009947D01*
X007646Y009847D01*
X007546Y009827D01*
X007546Y007307D01*
X007426Y007187D02*
X006106Y005867D01*
X006000Y005855D01*
X005146Y006467D02*
X004786Y006107D01*
X004786Y005627D01*
X005026Y005387D01*
X007546Y005387D01*
X007646Y005347D01*
X007666Y005267D01*
X007666Y004427D01*
X007646Y004347D01*
X005146Y006467D02*
X005146Y006827D01*
X005213Y006839D01*
X005986Y006947D02*
X006000Y006839D01*
X005986Y006947D02*
X005986Y011627D01*
X004666Y010307D01*
X004666Y009947D01*
X004646Y009847D01*
X005986Y011627D02*
X006106Y011747D01*
X006146Y011847D01*
X006106Y011867D01*
X004666Y013307D01*
X004666Y013787D01*
X004646Y013847D01*
X008646Y014847D02*
X008746Y014867D01*
X008746Y015347D01*
X013146Y011847D02*
X013066Y011747D01*
X019146Y012847D02*
X019186Y012827D01*
X020626Y012827D01*
X020646Y012847D01*
X020746Y012827D01*
X021706Y012827D01*
X023146Y011387D01*
X023146Y011347D01*
X023146Y011387D02*
X025186Y011387D01*
X023146Y014347D02*
X023146Y014387D01*
X021706Y015827D01*
X019186Y015827D01*
X019146Y015847D01*
X019186Y014867D02*
X019146Y014847D01*
X019186Y014867D02*
X020626Y014867D01*
X020646Y014847D01*
X021706Y018827D02*
X021226Y019307D01*
X017626Y019307D01*
X016306Y019907D02*
X018826Y022427D01*
X018346Y022907D02*
X019546Y024107D01*
X018346Y022907D02*
X013186Y022907D01*
X013146Y022847D01*
X013186Y020867D02*
X013146Y020847D01*
X013186Y020867D02*
X015946Y020867D01*
X017626Y022547D01*
X019146Y020847D02*
X019186Y020867D01*
X020386Y020867D01*
X021586Y022067D01*
X016306Y019907D02*
X013186Y019907D01*
X013146Y019847D01*
D21*
X017626Y019307D03*
X020026Y021467D03*
X017626Y022547D03*
X019426Y023507D03*
X022066Y023507D03*
X028426Y024467D03*
X028906Y023987D03*
X024826Y017747D03*
X025546Y017027D03*
X024106Y016307D03*
X034066Y009827D03*
X033586Y009347D03*
X034186Y008747D03*
X035986Y006467D03*
X035506Y004907D03*
X035266Y004427D03*
X007786Y015947D03*
M02*
