G75*
G70*
%OFA0B0*%
%FSLAX24Y24*%
%IPPOS*%
%LPD*%
%AMOC8*
5,1,8,0,0,1.08239X$1,22.5*
%
%ADD10C,0.0560*%
%ADD11OC8,0.0620*%
%ADD12OC8,0.0641*%
%ADD13C,0.1386*%
%ADD14OC8,0.0680*%
%ADD15C,0.0680*%
%ADD16OC8,0.0560*%
%ADD17OC8,0.0710*%
%ADD18C,0.0710*%
%ADD19C,0.0560*%
%ADD20C,0.1380*%
%ADD21C,0.0460*%
D10*
X012906Y003847D02*
X013386Y003847D01*
X013386Y004847D02*
X012906Y004847D01*
X012906Y005847D02*
X013386Y005847D01*
X013386Y006847D02*
X012906Y006847D01*
X012906Y007847D02*
X013386Y007847D01*
X013386Y008847D02*
X012906Y008847D01*
X012906Y009847D02*
X013386Y009847D01*
X013386Y010847D02*
X012906Y010847D01*
X012906Y011847D02*
X013386Y011847D01*
X013386Y012847D02*
X012906Y012847D01*
X012906Y013847D02*
X013386Y013847D01*
X013386Y014847D02*
X012906Y014847D01*
X012906Y015847D02*
X013386Y015847D01*
X013386Y016847D02*
X012906Y016847D01*
X012906Y017847D02*
X013386Y017847D01*
X013386Y018847D02*
X012906Y018847D01*
X012906Y019847D02*
X013386Y019847D01*
X013386Y020847D02*
X012906Y020847D01*
X012906Y021847D02*
X013386Y021847D01*
X013386Y022847D02*
X012906Y022847D01*
X018906Y022847D02*
X019386Y022847D01*
X019386Y021847D02*
X018906Y021847D01*
X018906Y020847D02*
X019386Y020847D01*
X019386Y019847D02*
X018906Y019847D01*
X018906Y018847D02*
X019386Y018847D01*
X019386Y017847D02*
X018906Y017847D01*
X018906Y016847D02*
X019386Y016847D01*
X019386Y015847D02*
X018906Y015847D01*
X018906Y014847D02*
X019386Y014847D01*
X019386Y013847D02*
X018906Y013847D01*
X018906Y012847D02*
X019386Y012847D01*
X019386Y011847D02*
X018906Y011847D01*
X018906Y010847D02*
X019386Y010847D01*
X019386Y009847D02*
X018906Y009847D01*
X018906Y008847D02*
X019386Y008847D01*
X019386Y007847D02*
X018906Y007847D01*
X018906Y006847D02*
X019386Y006847D01*
X019386Y005847D02*
X018906Y005847D01*
X018906Y004847D02*
X019386Y004847D01*
X019386Y003847D02*
X018906Y003847D01*
D11*
X005646Y016347D03*
X004646Y016347D03*
X004646Y017347D03*
X005646Y017347D03*
X005646Y018347D03*
X004646Y018347D03*
X004646Y019347D03*
X005646Y019347D03*
X005646Y020347D03*
X004646Y020347D03*
D12*
X005213Y006839D03*
X006000Y006839D03*
X006000Y005855D03*
X005213Y005855D03*
D13*
X004146Y003977D03*
X004146Y008717D03*
D14*
X036646Y008347D03*
X037646Y008347D03*
X037646Y007347D03*
X036646Y007347D03*
X036646Y006347D03*
X037646Y006347D03*
X037646Y005347D03*
X036646Y005347D03*
X036646Y004347D03*
X037646Y004347D03*
X037646Y003347D03*
X036646Y003347D03*
X036646Y009347D03*
X037646Y009347D03*
X037646Y010347D03*
X036646Y010347D03*
X036646Y011347D03*
X037646Y011347D03*
X037646Y012347D03*
X036646Y012347D03*
X036646Y013347D03*
X037646Y013347D03*
X037646Y014347D03*
X036646Y014347D03*
X036646Y015347D03*
X037646Y015347D03*
X037646Y016347D03*
X036646Y016347D03*
X036646Y017347D03*
X037646Y017347D03*
X037646Y018347D03*
X036646Y018347D03*
X036646Y019347D03*
X037646Y019347D03*
X037646Y020347D03*
X036646Y020347D03*
X036646Y021347D03*
X037646Y021347D03*
X037646Y022347D03*
X036646Y022347D03*
D15*
X034946Y019347D02*
X034346Y019347D01*
X034346Y018347D02*
X034946Y018347D01*
X034946Y017347D02*
X034346Y017347D01*
X034346Y016347D02*
X034946Y016347D01*
X034946Y015347D02*
X034346Y015347D01*
X034346Y014347D02*
X034946Y014347D01*
X034946Y013347D02*
X034346Y013347D01*
X034346Y012347D02*
X034946Y012347D01*
X032446Y012347D02*
X031846Y012347D01*
X031846Y011347D02*
X032446Y011347D01*
X032446Y013347D02*
X031846Y013347D01*
X031846Y014347D02*
X032446Y014347D01*
X029446Y014347D02*
X028846Y014347D01*
X028846Y013347D02*
X029446Y013347D01*
X029446Y012347D02*
X028846Y012347D01*
X028846Y011347D02*
X029446Y011347D01*
X026446Y011347D02*
X025846Y011347D01*
X025846Y012347D02*
X026446Y012347D01*
X026446Y013347D02*
X025846Y013347D01*
X025846Y014347D02*
X026446Y014347D01*
X023446Y014347D02*
X022846Y014347D01*
X022846Y013347D02*
X023446Y013347D01*
X023446Y012347D02*
X022846Y012347D01*
X022846Y011347D02*
X023446Y011347D01*
X022446Y018347D02*
X021846Y018347D01*
X021846Y019347D02*
X022446Y019347D01*
X022446Y020347D02*
X021846Y020347D01*
X021846Y021347D02*
X022446Y021347D01*
X024846Y021347D02*
X025446Y021347D01*
X025446Y020347D02*
X024846Y020347D01*
X024846Y019347D02*
X025446Y019347D01*
X025446Y018347D02*
X024846Y018347D01*
X027846Y018347D02*
X028446Y018347D01*
X028446Y019347D02*
X027846Y019347D01*
X027846Y020347D02*
X028446Y020347D01*
X028446Y021347D02*
X027846Y021347D01*
X030846Y021347D02*
X031446Y021347D01*
X031446Y020347D02*
X030846Y020347D01*
X030846Y019347D02*
X031446Y019347D01*
X031446Y018347D02*
X030846Y018347D01*
D16*
X020646Y016847D03*
X020646Y014847D03*
X020646Y012847D03*
X020646Y010847D03*
X012146Y013847D03*
X011646Y014847D03*
X011646Y015847D03*
X011646Y016847D03*
X011646Y017847D03*
X008646Y017847D03*
X008646Y016847D03*
X008646Y015847D03*
X008646Y014847D03*
X010146Y013847D03*
X006146Y013847D03*
X004646Y013847D03*
X006146Y011847D03*
X004646Y010847D03*
X004646Y009847D03*
X007646Y009847D03*
X009146Y009347D03*
X009146Y010347D03*
X011146Y010347D03*
X011146Y009347D03*
X010646Y006347D03*
X010646Y005347D03*
X007646Y005347D03*
X007646Y004347D03*
X007646Y006347D03*
X007646Y002347D03*
X034646Y007347D03*
X034646Y010347D03*
D17*
X009646Y002347D03*
D18*
X009646Y003347D03*
D19*
X009196Y007847D03*
X011096Y007847D03*
D20*
X003646Y001847D03*
X003646Y023847D03*
X039646Y023847D03*
X039646Y001847D03*
D21*
X035266Y004427D03*
X035506Y004907D03*
X035986Y006467D03*
X034186Y008747D03*
X033586Y009347D03*
X034066Y009827D03*
X024106Y016307D03*
X025546Y017027D03*
X024826Y017747D03*
X020026Y021467D03*
X017626Y022547D03*
X019426Y023507D03*
X022066Y023507D03*
X028426Y024467D03*
X028906Y023987D03*
X017626Y019307D03*
X007786Y015947D03*
M02*
