%
M48
M72
T01C0.0240
T02C0.0320
T03C0.0360
T04C0.0374
T05C0.0400
T06C0.0906
T07C0.1300
%
T01
X7786Y15947
X17626Y19307
X20026Y21467
X17626Y22547
X19426Y23507
X22066Y23507
X28426Y24467
X28906Y23987
X24826Y17747
X25546Y17027
X24106Y16307
X34066Y9827
X33586Y9347
X34186Y8747
X35986Y6467
X35506Y4907
X35266Y4427
T02
X34646Y7347
X34646Y10347
X20646Y10847
X19146Y10847
X19146Y9847
X19146Y8847
X19146Y7847
X19146Y6847
X19146Y5847
X19146Y4847
X19146Y3847
X13146Y3847
X13146Y4847
X13146Y5847
X13146Y6847
X13146Y7847
X13146Y8847
X13146Y9847
X13146Y10847
X13146Y11847
X13146Y12847
X13146Y13847
X12146Y13847
X11646Y14847
X11646Y15847
X11646Y16847
X11646Y17847
X13146Y17847
X13146Y16847
X13146Y15847
X13146Y14847
X10146Y13847
X8646Y14847
X8646Y15847
X8646Y16847
X8646Y17847
X13146Y18847
X13146Y19847
X13146Y20847
X13146Y21847
X13146Y22847
X19146Y22847
X19146Y21847
X19146Y20847
X19146Y19847
X19146Y18847
X19146Y17847
X19146Y16847
X19146Y15847
X19146Y14847
X19146Y13847
X19146Y12847
X19146Y11847
X20646Y12847
X20646Y14847
X20646Y16847
X11146Y10347
X11146Y9347
X9146Y9347
X7646Y9847
X9146Y10347
X6146Y11847
X4646Y10847
X4646Y9847
X9196Y7847
X11096Y7847
X10646Y6347
X10646Y5347
X9646Y3347
X9646Y2347
X7646Y2347
X7646Y4347
X7646Y5347
X7646Y6347
X6146Y13847
X4646Y13847
T03
X4646Y16347
X5646Y16347
X5646Y17347
X4646Y17347
X4646Y18347
X5646Y18347
X5646Y19347
X4646Y19347
X4646Y20347
X5646Y20347
T04
X6000Y6839
X5213Y6839
X5213Y5855
X6000Y5855
T05
X23146Y11347
X23146Y12347
X23146Y13347
X23146Y14347
X26146Y14347
X26146Y13347
X26146Y12347
X26146Y11347
X29146Y11347
X29146Y12347
X29146Y13347
X29146Y14347
X32146Y14347
X32146Y13347
X32146Y12347
X32146Y11347
X34646Y12347
X34646Y13347
X34646Y14347
X34646Y15347
X34646Y16347
X34646Y17347
X34646Y18347
X34646Y19347
X36646Y19347
X37646Y19347
X37646Y18347
X36646Y18347
X36646Y17347
X37646Y17347
X37646Y16347
X36646Y16347
X36646Y15347
X37646Y15347
X37646Y14347
X36646Y14347
X36646Y13347
X37646Y13347
X37646Y12347
X36646Y12347
X36646Y11347
X37646Y11347
X37646Y10347
X36646Y10347
X36646Y9347
X37646Y9347
X37646Y8347
X36646Y8347
X36646Y7347
X37646Y7347
X37646Y6347
X36646Y6347
X36646Y5347
X37646Y5347
X37646Y4347
X36646Y4347
X36646Y3347
X37646Y3347
X31146Y18347
X31146Y19347
X31146Y20347
X31146Y21347
X28146Y21347
X28146Y20347
X28146Y19347
X28146Y18347
X25146Y18347
X25146Y19347
X25146Y20347
X25146Y21347
X22146Y21347
X22146Y20347
X22146Y19347
X22146Y18347
X36646Y20347
X37646Y20347
X37646Y21347
X36646Y21347
X36646Y22347
X37646Y22347
T06
X4146Y8717
X4146Y3977
T07
X3646Y1847
X3646Y23847
X39646Y23847
X39646Y1847
M30
